<?xml version="1.0" encoding="UTF-8" standalone="no"?>
<!-- Created with Inkscape (http://www.inkscape.org/) -->

<svg
   width="210mm"
   height="297mm"
   viewBox="0 0 210 297"
   version="1.1"
   id="svg1538"
   inkscape:version="1.2 (dc2aedaf03, 2022-05-15)"
   sodipodi:docname="coffeeGrains.svg"
   xmlns:inkscape="http://www.inkscape.org/namespaces/inkscape"
   xmlns:sodipodi="http://sodipodi.sourceforge.net/DTD/sodipodi-0.dtd"
   xmlns="http://www.w3.org/2000/svg"
   xmlns:svg="http://www.w3.org/2000/svg">
  <sodipodi:namedview
     id="namedview1540"
     pagecolor="#505050"
     bordercolor="#eeeeee"
     borderopacity="1"
     inkscape:showpageshadow="0"
     inkscape:pageopacity="0"
     inkscape:pagecheckerboard="0"
     inkscape:deskcolor="#505050"
     inkscape:document-units="mm"
     showgrid="false"
     inkscape:zoom="0.18641099"
     inkscape:cx="37.551435"
     inkscape:cy="268.22454"
     inkscape:window-width="1920"
     inkscape:window-height="1017"
     inkscape:window-x="-8"
     inkscape:window-y="-8"
     inkscape:window-maximized="1"
     inkscape:current-layer="layer1" />
  <defs
     id="defs1535" />
  <g
     inkscape:label="Calque 1"
     inkscape:groupmode="layer"
     id="layer1">
    <path
       d="M 620.29701,271.44102 C 657.37043,104.58418 565.18959,144.76557 471.18489,214.16049 400.38592,278.66591 384.41566,389.54397 299.51616,441.1977 c -16.03375,14.80256 -76.60217,27.82358 -74.29853,49.28659 89.39389,57.60861 212.28051,10.10708 292.39282,-61.53856 50.85292,-45.40604 87.31956,-101.34601 102.68656,-157.50471"
       style="fill:#442101;fill-opacity:1;fill-rule:nonzero;stroke:none;stroke-width:0.0352778"
       id="path1506" />
    <path
       d="m 188.32412,442.57706 c 11.33475,11.50056 24.52864,13.09158 37.81073,9.69433 C 354.80702,413.12717 373.33844,267.87444 465.13475,188.5841 499.4177,159.4129 545.7092,150.1666 578.09773,118.92459 559.45343,70.95387 496.76834,71.871092 446.561,76.877009 299.90069,96.988871 104.94156,291.65519 188.32412,442.57706"
       style="fill:#442101;fill-opacity:1;fill-rule:nonzero;stroke:none;stroke-width:0.0352778"
       id="path1508" />
    <path
       d="m 39.286087,56.278313 c -1.566333,-0.433916 -3.122084,-0.98425 -4.674306,-1.594555 1.643945,2.010833 2.458861,4.321528 4.674306,1.594555"
       style="fill:#442101;fill-opacity:1;fill-rule:nonzero;stroke:none;stroke-width:0.0352778"
       id="path1510" />
    <path
       d="M 295.26871,-60.664 C 332.33861,106.1999 240.16835,66.004397 146.15659,-3.386996 75.361145,-67.892417 59.383838,-178.76695 -25.512139,-230.4242 c -16.033751,-14.79903 -76.602171,-27.82712 -74.302061,-49.28659 89.400951,-57.60862 212.27699,-10.10356 292.39635,61.53856 50.84939,45.40603 87.31604,101.346 102.68656,157.50823"
       style="fill:#442101;fill-opacity:1;fill-rule:nonzero;stroke:none;stroke-width:0.0352778"
       id="path1512" />
    <path
       d="m -136.70417,-231.80004 c 11.33475,-11.50408 24.52864,-13.09158 37.81072,-9.69433 128.679231,39.14069 147.200065,184.400482 239.00343,263.683764 34.27589,29.164141 80.5674,38.428086 112.95945,69.659505 C 234.42865,139.82315 171.7471,138.90593 121.5327,133.89648 -25.134667,113.78462 -220.08321,-80.87464 -136.70417,-231.80004"
       style="fill:#442101;fill-opacity:1;fill-rule:nonzero;stroke:none;stroke-width:0.0352778"
       id="path1514" />
    <path
       d="m -225.93226,89.622871 c -170.16202,16.044339 -103.57874,91.408259 -8.62789,159.497899 83.14514,47.5227 193.568121,28.62439 268.826209,93.51081 19.021779,10.70328 50.041531,64.33609 69.754751,55.54134 C 131.3364,295.39111 48.345421,193.07496 -44.473946,138.88124 -103.32081,104.46423 -167.76626,86.969982 -225.93226,89.622871"
       style="fill:#442101;fill-opacity:1;fill-rule:nonzero;stroke:none;stroke-width:0.0352778"
       id="path1516" />
    <path
       d="M 69.783728,448.00984 C 77.237923,433.68706 74.690867,420.64486 67.377783,409.05611 -9.4501661,298.65783 -153.35529,325.70177 -257.04162,262.74505 c -38.29721,-23.64317 -61.33924,-64.84762 -101.0278,-86.05662 -39.91328,32.48731 -19.75415,91.85629 0.44838,138.08782 64.25071,133.3747 309.442927,258.99535 427.404768,133.23359"
       style="fill:#442101;fill-opacity:1;fill-rule:nonzero;stroke:none;stroke-width:0.0352778"
       id="path1518" />
  </g>
</svg>
