<?xml version="1.0" encoding="UTF-8" standalone="no"?>
<!-- Created with Inkscape (http://www.inkscape.org/) -->

<svg
   width="210mm"
   height="297mm"
   viewBox="0 0 210 297"
   version="1.1"
   id="svg1450"
   inkscape:version="1.2 (dc2aedaf03, 2022-05-15)"
   sodipodi:docname="coffeeShopLogo.svg"
   xmlns:inkscape="http://www.inkscape.org/namespaces/inkscape"
   xmlns:sodipodi="http://sodipodi.sourceforge.net/DTD/sodipodi-0.dtd"
   xmlns="http://www.w3.org/2000/svg"
   xmlns:svg="http://www.w3.org/2000/svg">
  <sodipodi:namedview
     id="namedview1452"
     pagecolor="#505050"
     bordercolor="#eeeeee"
     borderopacity="1"
     inkscape:showpageshadow="0"
     inkscape:pageopacity="0"
     inkscape:pagecheckerboard="0"
     inkscape:deskcolor="#505050"
     inkscape:document-units="mm"
     showgrid="false"
     inkscape:zoom="0.74564394"
     inkscape:cx="396.97231"
     inkscape:cy="560.58928"
     inkscape:window-width="1920"
     inkscape:window-height="1017"
     inkscape:window-x="-8"
     inkscape:window-y="-8"
     inkscape:window-maximized="1"
     inkscape:current-layer="layer1" />
  <defs
     id="defs1447" />
  <g
     inkscape:label="Calque 1"
     inkscape:groupmode="layer"
     id="layer1">
    <path
       d="M 117.27743,161.84541 H 74.975137 c -6.621991,0 -11.989858,-4.54202 -11.989858,-10.14519 v 0 h 66.281651 v 0 c 0,5.60317 -5.36787,10.14519 -11.9895,10.14519"
       style="fill:#fffbe9;fill-opacity:1;fill-rule:nonzero;stroke:none;stroke-width:0.0352778"
       id="path1199" />
    <path
       d="m 62.143904,117.80075 c 0,21.52368 15.214247,38.97207 33.982024,38.97207 18.768132,0 33.982382,-17.44839 33.982382,-38.97207 H 62.143904"
       style="fill:#fffbe9;fill-opacity:1;fill-rule:nonzero;stroke:none;stroke-width:0.0352778"
       id="path1201" />
    <path
       d="m 120.07072,147.96854 c -2.03024,0 -3.91795,-0.32879 -5.4423,-1.0167 l 2.03552,-4.51097 c 2.57705,1.16275 8.28887,0.62441 12.36381,-2.00696 1.8288,-1.1811 4.00826,-3.25331 4.00826,-6.41843 0,-3.78284 -3.07693,-6.86047 -6.85977,-6.86047 -0.67168,0 -1.33491,0.0963 -1.97096,0.28645 l -1.41747,-4.74133 c 1.09644,-0.32773 2.23626,-0.49389 3.38843,-0.49389 6.51122,0 11.80889,5.29766 11.80889,11.80924 0,4.20758 -2.22779,7.96325 -6.27239,10.57557 -3.37714,2.18122 -7.76887,3.37749 -11.64202,3.37749"
       style="fill:#fffbe9;fill-opacity:1;fill-rule:nonzero;stroke:none;stroke-width:0.0352778"
       id="path1203" />
    <path
       d="m 92.601326,85.695151 c -0.937331,1.835856 -2.395361,3.349273 -3.510845,5.082822 -2.583038,4.0132 -3.176411,9.272407 -1.431925,13.714587 1.744839,4.44183 5.823656,7.92022 10.511014,8.81627 -2.532592,-1.13065 -4.562122,-3.33975 -5.474053,-5.95912 -0.91193,-2.61938 -0.693561,-5.61128 0.589139,-8.070498 1.228725,-2.35585 3.321756,-4.139494 4.790722,-6.353527 1.375481,-2.073628 2.179812,-4.510264 2.390772,-6.989586 0.24095,-2.829631 -0.41239,-5.943247 -2.57598,-7.783336 -1.883128,-1.601611 -4.428419,-2.118078 -6.3627,-3.675592 2.093383,3.398661 3.003197,7.437614 1.073856,11.21798"
       style="fill:#fffbe9;fill-opacity:1;fill-rule:nonzero;stroke:none;stroke-width:0.0352778"
       id="path1205" />
    <path
       d="m 100.70675,110.70851 c -1.181455,-1.12748 -2.426408,-2.36891 -2.707219,-3.97757 -0.2794,-1.59809 0.461786,-3.18453 1.25342,-4.60023 0.784929,-1.40405 1.641119,-2.768242 2.563989,-4.085514 1.2887,-1.839031 2.78765,-3.920773 2.29164,-6.110817 1.75013,2.282825 1.97203,5.628922 0.53834,8.122711 -0.46884,0.81527 -1.08938,1.53246 -1.60584,2.31881 -1.13418,1.72578 -1.7526,3.82905 -1.50813,5.87974 0.22684,1.90183 1.20933,3.43006 2.59609,4.68983 -1.3282,0.0508 -2.53365,-1.38924 -3.42229,-2.23696"
       style="fill:#fffbe9;fill-opacity:1;fill-rule:nonzero;stroke:none;stroke-width:0.0352778"
       id="path1207" />
  </g>
</svg>
