<?xml version="1.0" encoding="UTF-8" standalone="no"?>
<!-- Created with Inkscape (http://www.inkscape.org/) -->

<svg
   version="1.1"
   id="svg2"
   width="2666.6667"
   height="2666.6667"
   viewBox="0 0 2666.6667 2666.6667"
   sodipodi:docname="coffeeLogoYellow.svg"
   inkscape:version="1.2 (dc2aedaf03, 2022-05-15)"
   xmlns:inkscape="http://www.inkscape.org/namespaces/inkscape"
   xmlns:sodipodi="http://sodipodi.sourceforge.net/DTD/sodipodi-0.dtd"
   xmlns="http://www.w3.org/2000/svg"
   xmlns:svg="http://www.w3.org/2000/svg">
  <defs
     id="defs6" />
  <sodipodi:namedview
     id="namedview4"
     pagecolor="#505050"
     bordercolor="#eeeeee"
     borderopacity="1"
     inkscape:showpageshadow="0"
     inkscape:pageopacity="0"
     inkscape:pagecheckerboard="0"
     inkscape:deskcolor="#505050"
     showgrid="false"
     inkscape:zoom="0.31387498"
     inkscape:cx="1137.3955"
     inkscape:cy="1334.9264"
     inkscape:window-width="1920"
     inkscape:window-height="1017"
     inkscape:window-x="-8"
     inkscape:window-y="-8"
     inkscape:window-maximized="1"
     inkscape:current-layer="g12">
    <inkscape:page
       x="0"
       y="0"
       id="page8"
       width="2666.6667"
       height="2666.6667" />
  </sodipodi:namedview>
  <g
     id="g10"
     inkscape:groupmode="layer"
     inkscape:label="Page 1"
     transform="matrix(1.3333333,0,0,-1.3333333,0,2666.6667)">
    <g
       id="g12"
       transform="matrix(0.1,0,0,0.1,11.947432,9.5579458)">
      <path
         d="m 15045.6,10183.9 c -453,280.2 -943.4,145.6 -1238.1,12.2 3.3,91.2 5.1,182.9 5.1,275.2 h -0.6 c 0.2,5.3 0.6,10.6 0.6,16 0,493.1 -756.2,929.6 -1917.6,1197.5 727,-237.4 1175.5,-562.5 1175.5,-921.2 0,-727.1 -1841.9,-1316.5 -4114.04,-1316.5 -2272.11,0 -4114.01,589.4 -4114.01,1316.5 0,99 34.37,195.4 99.08,288.1 -225.22,-173.9 -349.78,-364.5 -349.78,-564.4 0,-814.9 2064.16,-1475.4 4610.44,-1475.4 1680.91,0 3151.51,287.9 3957.11,718 C 12992,8273.6 12368.1,7003.6 11476.4,6157.3 10696.8,5396.6 9718.34,4943.8 8655.85,4943.8 c -510.41,0 -1001.39,104.6 -1460.31,297.5 606.65,-370 1287.41,-577.5 2006.65,-577.5 2196.11,0 4033.51,1934.1 4497.41,4523.7 70.6,394.4 467.2,649.8 851.4,536 180,-53.4 322,-180.6 349.7,-439.7 128.6,-1205.3 -1513.9,-2608.1 -1513.9,-2608.1 1640.6,772.2 2581.3,2937.7 1658.8,3508.2"
         style="fill:#e7e393;fill-opacity:1;fill-rule:nonzero;stroke:none"
         id="path16" />
      <path
         d="m 5077.47,10208.9 c -59.08,27.6 -107.71,81.6 -155.02,136.8 -106.71,17.4 -215.49,24.6 -323.57,24.4 2.76,-24.5 4.33,-49.3 4.58,-74.4 19.54,-1954.4 803.72,-3685.3 2054.61,-4638 -1007.94,1113.9 -1585.25,2753.2 -1580.6,4551.2"
         style="fill:#e7e393;fill-opacity:1;fill-rule:nonzero;stroke:none"
         id="path18" />
      <path
         d="m 12167.8,5117 c 489.7,-169.8 775.9,-374.8 775.9,-595.6 0,-586.3 -2018.1,-1061.5 -4507.5,-1061.5 -1202.57,0 -2295.06,110.9 -3103.29,291.6 810.8,-281.2 2179.56,-465.9 3731.62,-465.9 2489.47,0 4507.57,475.3 4507.57,1061.5 0,303.1 -539.4,576.5 -1404.3,769.9"
         style="fill:#e7e393;fill-opacity:1;fill-rule:nonzero;stroke:none"
         id="path20" />
      <path
         d="m 8637.82,16051.6 c 0,0 -3.83,-5 -11.29,-14.7 -7.21,-9.8 -19.16,-23.2 -31.2,-43.5 -25.71,-38.8 -58.13,-100.1 -78.44,-183.6 -5.93,-20.5 -8.86,-43.1 -13.14,-66.2 -2.42,-23.6 -5.99,-47.9 -6.3,-73.7 -2,-51.3 0.52,-106.9 10.49,-165.2 9.95,-58.1 26.54,-118.9 51.44,-179.1 25.04,-61.4 58.62,-123.3 99.11,-185.2 80.89,-124.2 192.34,-246.5 324.02,-373.6 132.27,-128 280.33,-261.9 436.23,-405.9 155.9,-144.3 320.71,-299.7 482.5,-476 161.46,-176 320.26,-375.6 452.66,-603.1 132.4,-227.1 232.3,-473.7 280,-726.6 11.8,-63.2 20.8,-126.5 26.1,-189.7 l 2.3,-23.6 1.1,-24 c 0.7,-16 1.4,-32 2.1,-47.9 2,-31.8 0.3,-63.4 -0.1,-94.8 -3.8,-125.5 -21.7,-247.2 -51.4,-362.6 -58.5,-231.2 -169.4,-436.8 -310.3,-596.9 -18.2,-19.5 -36.3,-38.8 -54.2,-57.9 -19.1,-18.1 -38.5,-35.5 -57.5,-52.8 -18.4,-17.8 -39.6,-32.5 -59.4,-48.1 -10,-7.6 -19.9,-15.2 -29.8,-22.8 -9.8,-7.7 -20.8,-13.8 -31,-20.7 -20.9,-13.2 -41.3,-26.5 -61.8,-39 -20.91,-11.7 -41.64,-23.1 -62.48,-33.2 -41.6,-20.5 -82.76,-38.5 -123.33,-53.5 -81.06,-30.4 -158.81,-51.8 -231.91,-68.5 -73.15,-16.9 -141.71,-29 -205.46,-39.6 -127.3,-21.5 -240.64,-34.6 -333.29,-35.1 -92.76,-1.1 -164.18,9.3 -211.08,19.6 -23.49,5.6 -41.11,10.1 -52.79,13.9 -11.69,3.6 -17.66,5.4 -17.66,5.4 0,0 6.24,-0.2 18.46,-0.5 12.11,-0.7 30.24,-0.5 53.7,0 47.02,1.6 115.77,8.5 201.17,29.4 85.63,20.4 187.05,55.3 305.55,100.8 118.24,45.4 251.64,97.3 380.49,172.4 32.24,18.7 63.62,39.4 94.41,61.3 15.45,11 30.36,22.7 45.29,34.5 14.16,12.5 28.47,25.1 42.93,37.9 7.03,6.6 14.77,12.2 21.33,19.5 6.71,7 13.45,14.1 20.21,21.2 13.3,14.4 27.85,27.4 39.9,43.5 12.56,15.4 25.26,30.9 38.06,46.6 11.6,16.6 23.3,33.3 35.1,50.2 90.4,137.4 157.1,305 184.7,489.5 14.3,91.9 19.8,187.5 15.3,283.9 -1.6,24.1 -1.7,48.4 -5.2,72.5 -1.4,12 -2.7,24.1 -4,36.2 l -2,18.2 -3.1,18.5 c -7.4,49.4 -17.4,99 -29.4,148.7 -48.5,198.9 -134.9,398.9 -248.82,594.3 -113.99,195.9 -248.41,376.5 -390.23,548.1 -141.65,171.5 -289.14,334 -430.24,492.3 -141.32,158.5 -275.66,312.4 -395.61,465 -120.43,152.8 -225.77,310.6 -294.62,470.7 -34.54,79.8 -60.57,159.3 -76.35,236.6 -16.24,78.3 -21.37,153 -19.15,222 2.24,69 12.72,132.3 27.41,188.8 6.63,28.4 16.5,54.7 24.97,79.6 10.39,24.6 19.18,47.9 30.72,68.8 42.88,84.9 92.32,139.4 128.03,171.7 17.1,17 32.6,27.2 42.11,34.8 9.71,7.4 14.7,11.2 14.7,11.2"
         style="fill:#e7e393;fill-opacity:1;fill-rule:nonzero;stroke:none"
         id="path22" />
      <path
         d="m 8919.87,11336.6 c 0,0 2.49,5.3 7.36,15.5 4.63,10.3 12.59,24.9 20.91,44.9 16.02,40.4 36.89,100.6 50.36,180 13.5,79.3 19.34,177.8 9.21,289.1 -1.63,27.8 -6.86,56.3 -10.67,85.4 -2.35,14.6 -5.73,29.2 -8.54,44 -1.45,7.4 -2.92,14.8 -4.4,22.3 -1.94,7.4 -3.88,14.8 -5.83,22.3 -14.47,59.9 -35.84,121 -64.86,178.2 -3.69,7.1 -6.64,14.8 -10.89,21.5 -4.07,6.8 -8.17,13.6 -12.28,20.5 -4.17,6.9 -7.87,13.6 -12.38,20.7 -4.9,7.3 -9.85,14.6 -14.81,22 -4.95,7.4 -9.93,14.7 -14.93,22.2 -5.32,7.2 -10.67,14.5 -16.05,21.9 -5.36,7.3 -10.75,14.6 -16.16,22 -5.73,7.2 -11.48,14.5 -17.25,21.8 -46.16,58.3 -98.76,116 -156.96,173.5 -116.29,115.3 -255.9,229 -406.35,356.6 -148.52,126.1 -306.66,260.2 -465.82,411.4 -159.02,150.9 -318.33,322.2 -460.13,521.2 -17.01,25.6 -33.97,51.1 -50.87,76.5 l -25.1,38.2 -23.24,39.6 c -15.32,26.5 -30.61,52.8 -45.83,79.1 -13.75,27.3 -27.45,54.6 -41.11,81.7 -6.75,13.6 -13.49,27.1 -20.21,40.7 -5.96,14 -11.91,27.9 -17.85,41.9 -11.68,27.9 -23.31,55.7 -34.89,83.5 -10.43,28.2 -19.72,56.8 -29.4,85.1 -9.47,28.3 -19.58,56.3 -26.33,85.2 -14.92,57.5 -30.47,113.8 -40.18,172.2 -6.06,28.8 -9.28,57.9 -13.38,86.7 -4.44,28.7 -6.52,57.5 -8.94,86.1 -9.04,114.3 -6.68,226.4 4.82,334 11.64,107.6 31.8,210.9 59.76,308.4 27.92,97.5 62.6,189.3 101.86,274.9 38.95,85.8 83.64,164.9 130.92,237.6 22.97,36.7 48.47,70.8 72.5,104.4 25.78,32.5 49.98,64.8 76.4,94.2 102.57,119.8 211.17,212.3 312.17,282.8 101.18,70.7 195.52,118.6 274.3,151.3 9.8,4.1 19.32,8.2 28.57,12.1 9.47,3.4 18.65,6.7 27.53,9.9 17.79,6.3 34.19,12.5 49.69,17.5 31.44,9 57.49,17.3 79.07,22.5 43.09,9.6 65.71,14.7 65.71,14.7 0,0 -20.22,-11.1 -58.72,-32.2 -19.07,-10.5 -41.84,-25.3 -68.91,-41.6 -13.32,-8.5 -27.28,-18.5 -42.32,-28.6 -7.49,-5.1 -15.21,-10.3 -23.17,-15.7 -7.7,-5.9 -15.64,-11.8 -23.79,-18 -65.34,-48.6 -140.82,-113.1 -217.6,-196.6 -76.68,-83.3 -155.46,-184.8 -225.32,-306 -18.22,-29.8 -34.12,-61.9 -51.43,-93.8 -15.6,-33 -32.51,-65.8 -46.9,-100.8 -30.07,-69.2 -57.4,-142.6 -79.44,-219.9 -22.35,-77.2 -40.6,-157.9 -53.38,-241.5 -12.83,-83.5 -19.17,-169.8 -19.36,-257.6 -0.05,-87.8 6.65,-177.1 21.16,-266.3 14.33,-89.6 36.99,-177.5 68.15,-267.5 6.4,-22.8 15.98,-44.6 24.69,-66.9 8.91,-22.1 17.19,-44.5 26.42,-66.7 10.25,-21.9 20.52,-43.9 30.83,-65.9 l 15.33,-33.2 17.59,-32.4 c 11.61,-21.8 23.25,-43.6 34.94,-65.5 13,-21.4 26.03,-42.9 39.12,-64.5 l 19.47,-32.4 21.48,-31.8 c 14.25,-21.3 28.53,-42.7 42.86,-64.1 240.75,-338.8 549.89,-629.8 821.28,-915.5 134.41,-140.8 267.96,-280.9 379.28,-429.5 55.65,-74.1 105.76,-150.1 148.04,-227.1 5.26,-9.6 10.49,-19.2 15.69,-28.7 4.88,-9.8 9.73,-19.5 14.56,-29.1 4.77,-9.7 9.51,-19.3 14.22,-28.9 4.37,-9.7 8.7,-19.5 13.01,-29.2 4.24,-9.6 8.47,-19.2 12.67,-28.8 4.08,-10 7.9,-20.8 11.75,-31.1 3.78,-10.3 7.54,-20.6 11.27,-30.9 3.87,-10.2 6.03,-20.5 9.06,-30.6 23.34,-81.3 33.75,-158.6 36.46,-230.9 0.45,-9.1 0.89,-18 1.34,-26.9 -0.06,-8.9 -0.13,-17.7 -0.2,-26.4 -0.29,-17.5 -0.06,-34.6 -0.88,-51.4 -2.54,-33.7 -3.8,-66 -8.65,-97 -15.85,-124.1 -47.33,-226.6 -82.09,-305.6 -34.87,-79.3 -72.69,-134.4 -99.55,-169.8 -13.78,-17.5 -25.77,-29.7 -33.07,-38.2 -7.54,-8.4 -11.39,-12.7 -11.39,-12.7"
         style="fill:#e7e393;fill-opacity:1;fill-rule:nonzero;stroke:none"
         id="path24" />
    </g>
  </g>
</svg>
