<?xml version="1.0" encoding="UTF-8" standalone="no"?>
<!-- Created with Inkscape (http://www.inkscape.org/) -->

<svg
   width="210mm"
   height="297mm"
   viewBox="0 0 210 297"
   version="1.1"
   id="svg986"
   inkscape:version="1.2 (dc2aedaf03, 2022-05-15)"
   sodipodi:docname="cupYellow.svg"
   xmlns:inkscape="http://www.inkscape.org/namespaces/inkscape"
   xmlns:sodipodi="http://sodipodi.sourceforge.net/DTD/sodipodi-0.dtd"
   xmlns="http://www.w3.org/2000/svg"
   xmlns:svg="http://www.w3.org/2000/svg">
  <sodipodi:namedview
     id="namedview988"
     pagecolor="#505050"
     bordercolor="#eeeeee"
     borderopacity="1"
     inkscape:showpageshadow="0"
     inkscape:pageopacity="0"
     inkscape:pagecheckerboard="0"
     inkscape:deskcolor="#505050"
     inkscape:document-units="mm"
     showgrid="false"
     inkscape:zoom="0.74564394"
     inkscape:cx="396.97231"
     inkscape:cy="561.9304"
     inkscape:window-width="1920"
     inkscape:window-height="1017"
     inkscape:window-x="-8"
     inkscape:window-y="-8"
     inkscape:window-maximized="1"
     inkscape:current-layer="layer1" />
  <defs
     id="defs983" />
  <g
     inkscape:label="Calque 1"
     inkscape:groupmode="layer"
     id="layer1">
    <path
       d="m 76.310221,138.51063 c 0,0 0.03457,0.0917 0.1016,0.26811 0.06632,0.17639 0.170039,0.43392 0.292806,0.77611 0.06209,0.16934 0.131938,0.35984 0.208491,0.56798 0.07303,0.21166 0.159456,0.43744 0.257881,0.67733 0.09596,0.24342 0.198966,0.50094 0.30868,0.77611 0.11042,0.27517 0.209903,0.56797 0.346075,0.87489 0.522817,1.22414 1.136298,2.69875 1.960034,4.32506 0.100189,0.20108 0.202494,0.40922 0.306211,0.61736 0.103364,0.20814 0.218722,0.41627 0.329847,0.63147 0.229306,0.42333 0.446264,0.8643 0.700264,1.30175 0.257175,0.43392 0.508353,0.88547 0.766586,1.34408 0.276225,0.44803 0.5588,0.90664 0.847373,1.37231 1.177219,1.85208 2.543528,3.77119 4.125383,5.65855 1.575153,1.89089 3.381728,3.72887 5.384801,5.43278 0.25153,0.21167 0.498475,0.43039 0.755297,0.63853 0.26035,0.20461 0.521405,0.40569 0.783519,0.61383 l 0.390878,0.30692 0.405342,0.29281 c 0.270228,0.19402 0.541514,0.39158 0.813153,0.58561 1.105958,0.75494 2.239786,1.49225 3.432175,2.1343 0.299155,0.15875 0.589492,0.33161 0.893939,0.48331 0.303384,0.14816 0.607134,0.29986 0.911224,0.45155 0.30057,0.15875 0.6156,0.28575 0.92604,0.42334 0.31186,0.13405 0.61736,0.28575 0.9331,0.41275 0.635,0.23989 1.26153,0.508 1.90959,0.71261 0.32243,0.10936 0.64135,0.2293 0.96625,0.32808 l 0.97932,0.28222 c 0.16404,0.0423 0.32455,0.10231 0.48965,0.13759 l 0.49495,0.11994 c 0.3302,0.0776 0.65863,0.16581 0.98954,0.23636 l 0.99836,0.1905 c 0.16616,0.0318 0.33161,0.0706 0.49848,0.0988 l 0.50235,0.0706 c 0.33479,0.0494 0.66922,0.0952 1.00295,0.14464 0.3362,0.0317 0.67204,0.0635 1.00683,0.0952 l 0.50306,0.0529 c 0.16757,0.0141 0.33584,0.0141 0.50376,0.0247 0.3362,0.0176 0.67169,0.0353 1.00648,0.0494 l 0.12559,0.007 c 0.0243,0.004 -0.10231,0.004 -0.0321,0.004 h 0.0353 0.0702 l 0.28046,0.004 0.56056,0.004 h 0.2794 l 0.23601,-0.007 0.47025,-0.0106 c 0.30621,0 0.64417,-0.0247 0.97473,-0.0423 l 0.496,-0.0282 0.49318,-0.0459 c 1.31481,-0.11289 2.6095,-0.30692 3.87633,-0.56092 2.53012,-0.52564 4.93994,-1.31939 7.1628,-2.286 1.10913,-0.48683 2.17417,-1.01247 3.19123,-1.5628 1.01035,-0.56092 1.97379,-1.143 2.88572,-1.73214 0.90805,-0.5962 1.76494,-1.19945 2.56081,-1.80975 0.80927,-0.59267 1.536,-1.21356 2.23414,-1.79211 1.38007,-1.17123 2.52977,-2.27895 3.46216,-3.22439 0.23884,-0.22931 0.45085,-0.46214 0.65582,-0.67381 0.20355,-0.21872 0.40534,-0.41275 0.57891,-0.60678 0.34713,-0.381 0.65899,-0.70202 0.89817,-0.97366 0.23777,-0.26811 0.42933,-0.47273 0.55527,-0.61384 0.127,-0.13758 0.19227,-0.20814 0.19227,-0.20814 0,0 -0.0328,0.0917 -0.0963,0.26812 -0.0649,0.17638 -0.15628,0.44097 -0.28752,0.77963 -0.26458,0.67734 -0.67521,1.66864 -1.29575,2.88925 -0.61419,1.22767 -1.44462,2.68112 -2.55094,4.26509 -1.10807,1.58397 -2.4959,3.29141 -4.20969,4.99886 -0.85831,0.85372 -1.80376,1.69333 -2.82646,2.52236 -1.03082,0.81492 -2.14312,1.6122 -3.33869,2.36361 -2.39289,1.49578 -5.13009,2.79047 -8.12235,3.71828 -1.49684,0.45861 -3.05577,0.81844 -4.65455,1.07597 l -0.60079,0.0952 -0.60571,0.0776 c -0.40499,0.0459 -0.80399,0.0988 -1.24037,0.13053 l -0.64312,0.0494 -0.32173,0.0247 -0.2794,0.0106 -0.55986,0.0247 -0.28046,0.0106 -0.0702,0.004 -0.0349,0.004 h -0.10231 -0.15487 c -0.41416,-0.004 -0.82938,-0.007 -1.24495,-0.007 -0.20779,-0.004 -0.41628,-0.004 -0.62442,-0.0106 l -0.62441,-0.0388 c -0.41699,-0.0282 -0.83468,-0.0529 -1.25272,-0.0811 -0.41592,-0.0494 -0.83255,-0.0988 -1.24954,-0.1517 l -0.62583,-0.0741 c -0.20813,-0.0317 -0.41486,-0.0706 -0.6223,-0.10583 l -1.24354,-0.22225 c -0.41239,-0.0882 -0.82162,-0.1905 -1.23225,-0.28575 -0.41099,-0.0953 -0.82197,-0.18698 -1.22449,-0.31398 l -1.21215,-0.35983 c -0.40146,-0.127 -0.79551,-0.27517 -1.19309,-0.41275 -0.80045,-0.26105 -1.56386,-0.6103 -2.338918,-0.92428 -1.523647,-0.69144 -3.010253,-1.44639 -4.401961,-2.32127 -0.707672,-0.41981 -1.378303,-0.88548 -2.046817,-1.34762 -0.338314,-0.22225 -0.652286,-0.47977 -0.975078,-0.71966 -0.318911,-0.24695 -0.644172,-0.48331 -0.953558,-0.73731 -0.305153,-0.25753 -0.609247,-0.51505 -0.912636,-0.76905 l -0.451556,-0.38806 -0.433916,-0.39864 c -0.287162,-0.26811 -0.572912,-0.53622 -0.857603,-0.80433 -0.278695,-0.27164 -0.545395,-0.55386 -0.815975,-0.82903 -2.147359,-2.21544 -3.951817,-4.58258 -5.40244,-6.96031 -1.456972,-2.37419 -2.58445,-4.74486 -3.435703,-6.985 -0.860777,-2.23661 -1.425575,-4.35327 -1.82245,-6.23358 -0.406752,-1.88031 -0.593019,-3.54189 -0.71508,-4.90008 -0.05786,-0.68439 -0.07726,-1.29823 -0.100189,-1.82739 -0.03316,-0.52917 -0.0099,-0.97367 -0.01023,-1.33703 0.0021,-0.35983 0.01305,-0.64206 0.01693,-0.82903 0.0046,-0.18697 0.0074,-0.28575 0.0074,-0.28575"
       style="fill:#e7e393;fill-opacity:1;fill-rule:nonzero;stroke:none;stroke-width:0.0352778"
       id="path30" />
    <path
       d="m 137.35983,127.03477 c 0,3.21381 -9.82486,5.82083 -21.9449,5.82083 -12.11968,0 -21.944891,-2.60702 -21.944891,-5.82083 0,-3.21733 9.825211,-5.82436 21.944891,-5.82436 12.12004,0 21.9449,2.60703 21.9449,5.82436"
       style="fill:#e7e393;fill-opacity:1;fill-rule:nonzero;stroke:none;stroke-width:0.0352778"
       id="path32" />
    <path
       d="m 154.14041,162.2808 c 0.41205,-0.42333 0.83044,-0.83256 1.25624,-1.23119 0.42686,-0.4057 0.82409,-0.81492 1.2312,-1.21709 0.41345,-0.381 0.80257,-0.80433 1.20085,-1.2065 l 0.59514,-0.59972 c 0.19191,-0.20814 0.37994,-0.41981 0.57256,-0.62089 l 0.57432,-0.6103 c 0.18874,-0.20462 0.36971,-0.41628 0.55386,-0.62442 l 0.5521,-0.61736 c 0.18203,-0.20461 0.35313,-0.41981 0.53093,-0.62795 l 0.5274,-0.62794 c 0.17392,-0.20814 0.3362,-0.42686 0.50412,-0.63853 l 0.50271,-0.635 0.47378,-0.65264 c 0.15663,-0.21872 0.32209,-0.42686 0.47025,-0.64558 l 0.44556,-0.6597 c 0.14958,-0.21872 0.29951,-0.43391 0.43286,-0.65969 l 0.41663,-0.66675 c 0.14464,-0.2152 0.26,-0.44803 0.39229,-0.67028 0.12735,-0.22578 0.26035,-0.44803 0.38276,-0.6738 0.11501,-0.22931 0.23213,-0.45509 0.35066,-0.68087 l 0.17675,-0.33866 0.15734,-0.34572 0.31891,-0.68439 0.28151,-0.69145 c 0.0459,-0.11641 0.0967,-0.2293 0.14006,-0.34219 l 0.12347,-0.34925 c 0.079,-0.23284 0.17321,-0.45861 0.2413,-0.69145 0.30198,-0.9278 0.51752,-1.85561 0.66781,-2.7693 0.1524,-0.9137 0.19649,-1.81328 0.15734,-2.67053 -0.0459,-0.85372 -0.18239,-1.66158 -0.42016,-2.36714 -0.22966,-0.70908 -0.56939,-1.29117 -0.93592,-1.69686 -0.0854,-0.11289 -0.18556,-0.18697 -0.27517,-0.28222 l -0.0335,-0.0353 -0.004,-0.004 c 0.16052,0.11642 0.0385,0.0282 0.0713,0.0529 l -0.0212,-0.0176 -0.043,-0.0317 -0.1711,-0.127 -0.17004,-0.127 c -0.024,-0.0141 -0.0476,-0.0282 -0.0709,-0.0423 -0.0695,-0.0529 -0.23424,-0.15523 -0.36865,-0.23284 l -0.21061,-0.11289 c -0.0713,-0.0282 -0.14181,-0.06 -0.21202,-0.0952 -0.56691,-0.23283 -1.14617,-0.33514 -1.77623,-0.28927 -0.62654,0.0494 -1.3081,0.25047 -1.97944,0.635 -0.67239,0.37747 -1.33491,0.91722 -1.93146,1.58397 -0.60466,0.66322 -1.13382,1.45344 -1.6069,2.31422 l 0.139,-0.77611 -0.1009,0.81844 -0.11818,0.81492 c -0.0864,0.54328 -0.18027,1.08303 -0.28681,1.61925 l -0.16792,0.80433 -0.18662,0.79728 c -0.13053,0.52917 -0.26952,1.05834 -0.42474,1.58045 -0.1577,0.52211 -0.31786,1.04069 -0.49354,1.55575 -0.18274,0.51505 -0.36513,1.02305 -0.56833,1.52752 l -0.3122,0.75142 c -0.10478,0.25047 -0.22296,0.49389 -0.33373,0.74083 -0.22684,0.49037 -0.47519,0.97367 -0.73695,1.44992 -0.005,-0.27164 -0.0152,-0.54328 -0.0152,-0.81139 -0.006,-0.26811 -0.0106,-0.53622 -0.0117,-0.80433 l -0.0314,-1.59103 c -0.012,-0.26458 -0.012,-0.52564 -0.0201,-0.79022 l -0.0286,-0.78317 -0.03,-0.78316 -0.0395,-0.77964 -0.0956,-1.54517 -0.11994,-1.53458 -0.0692,-0.762 -0.0769,-0.762 c -0.0515,-0.50448 -0.11395,-1.00895 -0.1718,-1.51342 l -0.0194,-0.16581 0.1584,-0.60677 c 0.33302,-1.27 0.82762,-2.53648 1.53776,-3.73945 0.35948,-0.59619 0.762,-1.1818 1.23119,-1.73567 0.47273,-0.55033 0.9966,-1.07597 1.58786,-1.54869 1.17263,-0.9525 2.62784,-1.70392 4.24638,-2.04964 1.61396,-0.35983 3.3775,-0.27164 4.96641,0.23636 l 0.58737,0.20814 c 0.19121,0.0776 0.37959,0.15875 0.56868,0.23989 0.3743,0.17639 0.71544,0.34219 1.12395,0.59972 l 0.29245,0.17992 0.17851,0.11994 0.17709,0.11995 0.0444,0.0318 0.0222,0.0141 0.0931,0.067 0.0162,0.0141 0.12947,0.1023 c 0.34431,0.27517 0.69286,0.55386 0.98284,0.87136 0.61983,0.61384 1.09714,1.29823 1.52753,1.9932 0.10689,0.17286 0.1912,0.35278 0.28575,0.52917 0.0889,0.17991 0.18767,0.3563 0.26493,0.53622 l 0.22437,0.54328 c 0.073,0.17991 0.14993,0.36336 0.20355,0.54327 0.49283,1.45698 0.7112,2.921 0.73625,4.34623 0.0293,1.42169 -0.12735,2.80811 -0.42863,4.1275 -0.30056,1.31939 -0.71931,2.58586 -1.24495,3.7853 -0.12735,0.30339 -0.27799,0.58914 -0.41663,0.88547 l -0.21272,0.43745 c -0.0723,0.14464 -0.15487,0.28222 -0.23248,0.42686 l -0.47414,0.83961 -0.51364,0.80786 -0.25965,0.40217 -0.27622,0.38805 c -0.18415,0.254 -0.36971,0.51153 -0.55739,0.76553 -0.19262,0.24695 -0.39405,0.49036 -0.59055,0.73378 -0.19897,0.23989 -0.39194,0.48683 -0.60572,0.71261 -0.42157,0.45861 -0.82762,0.93134 -1.27811,1.35114 l -0.66181,0.64558 c -0.22261,0.21167 -0.45862,0.4057 -0.68651,0.61031 l -0.69286,0.59972 -0.71755,0.56092 c -0.2413,0.18344 -0.47695,0.37394 -0.72178,0.55033 l -0.74295,0.51859 c -0.24906,0.16933 -0.49142,0.34572 -0.74683,0.50447 l -0.76482,0.47272 c -0.25682,0.15522 -0.50941,0.31044 -0.76765,0.46214 l -0.78634,0.42333 c -0.2607,0.14464 -0.52599,0.2787 -0.7881,0.41628 l -0.80293,0.381 c -0.53622,0.25047 -1.07209,0.49389 -1.62666,0.71261 l -0.82761,0.32103 -0.41205,0.15875 c -0.13793,0.0494 -0.27763,0.0917 -0.41627,0.13758 -0.55457,0.18345 -1.11619,0.35278 -1.68452,0.51153"
       style="fill:#e7e393;fill-opacity:1;fill-rule:nonzero;stroke:none;stroke-width:0.0352778"
       id="path34" />
    <path
       d="m 108.27224,62.98796 c 0,0 -0.0511,0.02822 -0.15134,0.08114 -0.0981,0.05644 -0.25753,0.137584 -0.4318,0.250473 -0.35877,0.215194 -0.90064,0.567972 -1.53105,1.090083 -0.635,0.522111 -1.35785,1.227667 -2.11244,2.134306 -0.37465,0.458611 -0.75671,0.963083 -1.14088,1.524 -0.0515,0.07408 -0.10301,0.148166 -0.15487,0.22225 -0.0444,0.07055 -0.0896,0.141111 -0.13476,0.211666 -0.0907,0.137584 -0.18204,0.282223 -0.27446,0.437445 -0.18486,0.303389 -0.37007,0.617361 -0.5454,0.945444 -0.70379,1.305278 -1.32009,2.81164 -1.62136,4.455584 -0.0346,0.204611 -0.0759,0.409222 -0.0991,0.620889 l -0.0212,0.155222 -0.0106,0.07761 c -0.01,0.05292 0.007,-0.02822 0.004,-0.0035 l -0.005,0.04939 c -0.0131,0.123473 -0.0258,0.246945 -0.0388,0.373945 -0.01799,0.141111 -0.01164,0.211667 -0.01658,0.313972 -0.0014,0.09878 -0.0095,0.183445 -0.0074,0.292806 3.53e-4,0.215194 -0.0025,0.430389 0.01199,0.645583 0.0056,0.215195 0.02892,0.430389 0.04409,0.645583 0.0293,0.215195 0.0462,0.433917 0.0893,0.649112 0.0677,0.430389 0.17639,0.860777 0.30903,1.277055 0.13088,0.419806 0.30057,0.8255 0.49071,1.217084 0.18945,0.391583 0.41558,0.762 0.67487,1.104194 l 0.0949,0.130528 c -0.0765,-0.109361 -0.001,-0.0035 -0.009,-0.01764 l 0.0349,0.04233 0.0698,0.08819 0.14005,0.176389 c 0.0378,0.04233 0.0596,0.05997 0.0893,0.09172 l 0.0808,0.08114 0.10971,0.105833 c 0.0723,0.07056 0.14817,0.141111 0.22754,0.208139 0.30974,0.278695 0.65899,0.529167 1.05164,0.762 0.78246,0.462139 1.7466,0.829028 2.83527,1.135945 1.09008,0.303389 2.30117,0.53975 3.59904,0.754944 1.29857,0.215195 2.68358,0.409222 4.15219,0.659695 0.73555,0.123472 1.49155,0.268111 2.27225,0.440972 0.78069,0.172861 1.58362,0.373944 2.41229,0.642056 0.82797,0.271638 1.68381,0.585611 2.54811,1.026583 0.43216,0.218722 0.86607,0.465667 1.29646,0.744361 0.42757,0.28575 0.85302,0.592667 1.26013,0.948972 0.20672,0.172862 0.40181,0.366889 0.60007,0.557389 0.18909,0.201084 0.38382,0.395111 0.55986,0.613834 0.36512,0.423333 0.68862,0.885472 0.98319,1.36525 0.57185,0.963083 0.99836,2.003778 1.24531,3.030361 l 0.0907,0.388056 0.0222,0.09525 c 0.002,0.0035 0.0688,0.345722 0.0452,0.232833 l 0.0222,0.148167 0.0427,0.292805 0.0212,0.148167 c 0.004,0.03175 0.007,0.0388 0.0109,0.08467 l 0.0117,0.123472 c 0.0296,0.328083 0.0515,0.656167 0.0653,0.98425 -0.004,0.28575 -0.0141,0.560917 -0.0282,0.843139 -0.0819,1.114778 -0.32844,2.173114 -0.67592,3.150304 -0.34361,0.98778 -0.80857,1.87325 -1.30705,2.70933 -0.24588,0.42334 -0.51964,0.81492 -0.79339,1.21003 -0.2854,0.37747 -0.56656,0.762 -0.86854,1.11831 -0.29422,0.36689 -0.60466,0.70908 -0.91687,1.05127 -0.32032,0.33162 -0.63747,0.66675 -0.96944,0.98073 -0.65581,0.64205 -1.33738,1.2453 -2.03764,1.8168 -0.69779,0.57856 -1.41781,1.12536 -2.15406,1.64747 -0.73413,0.52564 -1.48661,1.02659 -2.25601,1.50284 -0.76941,0.47625 -1.55187,0.93133 -2.35127,1.36878 -0.80151,0.43391 -1.62101,0.84666 -2.46768,1.23472 l -0.079,0.0353 c -0.0208,0.0106 -0.10301,0.0459 -0.10301,0.0459 l -0.15311,0.0635 -0.30339,0.13052 -0.60819,0.254 c -0.43285,0.16934 -0.86642,0.33867 -1.30069,0.51153 -0.43427,0.15875 -0.86536,0.30339 -1.29822,0.45861 -0.43498,0.13759 -0.87101,0.2787 -1.30739,0.41981 -3.49991,1.07597 -7.080255,1.77094 -10.638725,2.49414 -0.890058,0.17992 -1.781881,0.34925 -2.667706,0.53975 -0.890411,0.1905 -1.782233,0.381 -2.675467,0.5715 -0.907697,0.19403 -1.78435,0.37394 -2.659591,0.57503 -0.872067,0.21166 -1.732492,0.44097 -2.576337,0.6985 -0.841728,0.26105 -1.665111,0.55739 -2.444044,0.89605 -0.773995,0.34572 -1.516592,0.73378 -2.121253,1.18181 -0.607484,0.44097 -1.061509,0.96661 -1.184981,1.36172 -0.06526,0.20108 -0.08855,0.35631 -0.05362,0.53269 -7.06e-4,-0.0318 0.0025,0.11289 -0.0018,-0.06 l 0.0099,0.0847 0.0194,0.17286 c 0.0088,-0.004 0.01517,-0.007 0.01834,-0.0141 0.0018,0 0.0025,-0.004 0.0025,-0.004 l 0.01376,0.0247 c 0.02469,0.067 0.07514,0.14111 0.12453,0.22225 0.220486,0.33161 0.709084,0.77258 1.317625,1.15005 0.607131,0.38453 1.328914,0.72672 2.081389,1.03364 1.512712,0.61383 3.172178,1.07597 4.857398,1.45697 3.377495,0.76553 6.87317,1.25589 10.354381,1.62984 6.974061,0.75141 13.956241,0.8008 20.655841,0.49036 3.34998,-0.15523 6.63222,-0.4057 9.81922,-0.74084 3.18558,-0.33514 6.27944,-0.762 9.22514,-1.31233 2.93405,-0.55386 5.75451,-1.24178 8.1728,-2.159 0.59937,-0.22931 1.17264,-0.47272 1.68663,-0.73378 0.51329,-0.25753 0.98002,-0.53622 1.33703,-0.79022 0.36901,-0.25047 0.59619,-0.50094 0.67522,-0.57503 0.0399,-0.0388 0.0367,-0.0176 0.0402,0.0423 0,0.0141 -0.003,0.0353 0.004,0.0529 0.001,0.0176 0,0.0353 0.008,0.0529 0.002,-0.0141 0.008,0.26105 0.005,0.10936 v -0.0635 l -7e-4,-0.13053 c -0.002,0.0459 0.01,0.13759 0.0265,0.18697 0.0233,0.0529 0.0504,0.0564 0.0409,0 -0.007,-0.0529 -0.0607,-0.15875 -0.14781,-0.28222 -0.17322,-0.25047 -0.48966,-0.5715 -0.87066,-0.87136 -0.37888,-0.30339 -0.82374,-0.59619 -1.29117,-0.88194 -0.46813,-0.28223 -0.96379,-0.54681 -1.47037,-0.79728 -1.01459,-0.49742 -2.07434,-0.93486 -3.12315,-1.33703 -1.05304,-0.40217 -2.10537,-0.74789 -3.13619,-1.07597 -1.03047,-0.32456 -2.0447,-0.61383 -3.03107,-0.87842 -0.98531,-0.27164 -1.94416,-0.51153 -2.87126,-0.73378 -1.85243,-0.44802 -3.57575,-0.81138 -5.13926,-1.12536 -3.12914,-0.62441 -5.62293,-1.03364 -7.32614,-1.31586 -1.70815,-0.27516 -2.61902,-0.42333 -2.61902,-0.42333 l 0.0183,-0.73378 c 0,0 0.92287,-0.10936 2.66242,-0.24342 1.73919,-0.127 4.29612,-0.26811 7.56779,-0.23636 1.63618,0.0176 3.44981,0.0811 5.4296,0.22225 0.98954,0.0741 2.02036,0.16934 3.09139,0.28928 1.07068,0.11994 2.18017,0.27517 3.32952,0.46214 1.15041,0.18344 2.33503,0.42686 3.56129,0.71614 1.22696,0.28928 2.48955,0.64205 3.79518,1.10772 0.65299,0.23636 1.31692,0.49742 1.99461,0.80433 0.67839,0.30339 1.3656,0.66323 2.07045,1.11125 0.70273,0.45156 1.42875,0.98425 2.14771,1.74625 0.35701,0.381 0.71332,0.82198 1.03117,1.36878 0.3175,0.54328 0.59408,1.19239 0.7426,1.92617 0.042,0.22225 0.0762,0.4833 0.0956,0.6985 l 0.0113,0.13053 0.006,0.0635 c -10e-4,-0.10584 0.009,0.21166 0.007,0.23989 -0.002,0.1905 -0.006,0.38452 -0.0208,0.57502 -0.0201,0.18698 -0.0416,0.381 -0.0744,0.56798 -0.13335,0.74436 -0.39723,1.42169 -0.70802,1.99319 -0.31257,0.57503 -0.66781,1.05481 -1.03082,1.47814 -0.36477,0.42686 -0.73836,0.78669 -1.11301,1.11125 -0.75072,0.65969 -1.5113,1.16064 -2.26978,1.61925 -0.75953,0.45508 -1.52012,0.84314 -2.28564,1.20297 -1.52859,0.71261 -3.08046,1.28059 -4.6535,1.78506 -1.57409,0.49741 -3.17076,0.92428 -4.79248,1.29469 -3.24097,0.74084 -6.57754,1.25942 -9.98996,1.60867 -3.41242,0.35278 -6.90104,0.52211 -10.44152,0.53975 -0.88618,0.0106 -1.76918,0.007 -2.67688,-0.0106 -0.44168,-0.0106 -0.88406,-0.0212 -1.3275,-0.0282 -0.44733,-0.0141 -0.895,-0.0282 -1.34409,-0.0423 -1.79458,-0.06 -3.60115,-0.16581 -5.41655,-0.30339 -3.63114,-0.27869 -7.30073,-0.69144 -10.984789,-1.31586 -3.682647,-0.635 -7.378347,-1.49578 -11.027834,-2.80458 -1.821391,-0.66675 -3.634317,-1.43228 -5.416903,-2.44475 -0.889353,-0.51506 -1.770944,-1.09009 -2.625372,-1.82034 -0.426156,-0.36689 -0.845609,-0.77258 -1.241073,-1.24883 -0.392641,-0.47978 -0.768702,-1.03011 -1.04775,-1.70039 -0.136172,-0.33867 -0.255763,-0.69497 -0.320675,-1.0795 l -0.02611,-0.14464 -0.02187,-0.17639 c -0.01305,-0.11641 -0.02293,-0.23636 -0.03034,-0.35278 l 0.0032,-0.17286 0.0014,-0.0847 c -7.06e-4,-0.22931 0.0067,-0.14464 0.0099,-0.23284 0.03528,-0.74789 0.291041,-1.49577 0.642761,-2.10961 0.354894,-0.61383 0.801864,-1.1183 1.262592,-1.50283 0.46108,-0.39511 0.938036,-0.71261 1.411464,-0.97367 0.947208,-0.53622 1.89618,-0.889 2.835275,-1.19239 0.938389,-0.30691 1.87325,-0.53622 2.802819,-0.7373 0.927806,-0.20461 1.852789,-0.37747 2.772481,-0.52564 0.916164,-0.15522 1.836561,-0.29281 2.721328,-0.43039 0.210256,-0.0282 0.446264,-0.0706 0.658283,-0.10936 l 0.67557,-0.11995 c 0.449439,-0.0811 0.898525,-0.15875 1.347258,-0.23988 0.897467,-0.1517 1.78682,-0.32456 2.672998,-0.49037 3.54083,-0.65969 7.006157,-1.46402 10.201627,-2.75872 0.39652,-0.1658 0.79269,-0.32808 1.18251,-0.50447 0.38488,-0.18345 0.77611,-0.35983 1.15146,-0.54681 0.37077,-0.1905 0.73061,-0.36689 1.10279,-0.57855 l 0.5715,-0.32809 0.28539,-0.16227 0.14253,-0.0847 c 0.048,-0.0247 0.0152,-0.0106 0.042,-0.0247 l 0.0656,-0.0423 c 0.70203,-0.42686 1.38501,-0.90664 2.05035,-1.40053 0.66675,-0.49388 1.30951,-1.02305 1.93181,-1.5628 0.62406,-0.53622 1.22661,-1.09361 1.8034,-1.66158 0.57856,-0.56798 1.13489,-1.15006 1.65876,-1.74273 0.5274,-0.58914 1.02482,-1.19239 1.48167,-1.80622 0.46214,-0.6103 0.88265,-1.23472 1.26188,-1.85208 0.19685,-0.30692 0.36125,-0.62089 0.53517,-0.92781 0.15134,-0.31044 0.3175,-0.61736 0.44732,-0.92075 0.27129,-0.6103 0.49001,-1.21355 0.61595,-1.78153 0.13123,-0.567966 0.19226,-1.104189 0.18309,-1.591022 -0.0106,-0.116417 -0.0134,-0.239889 -0.0173,-0.352778 -0.0187,-0.07055 -0.0293,-0.137583 -0.0318,-0.208139 l -7.1e-4,-0.02469 c 0.002,-0.0035 -0.008,-0.04233 -0.012,-0.0635 l -0.0314,-0.144639 -0.0621,-0.292806 -0.0303,-0.144638 c -0.0328,-0.15875 0.0282,0.134055 0.0166,0.08819 l -0.0148,-0.04586 -0.0571,-0.1905 c -0.15522,-0.497417 -0.36159,-0.913695 -0.59795,-1.277056 -0.24166,-0.363361 -0.51894,-0.677333 -0.8696,-0.970139 -0.68721,-0.585611 -1.68804,-1.090083 -2.85503,-1.49225 -1.16875,-0.402167 -2.47721,-0.712611 -3.82305,-0.994833 -1.34938,-0.28575 -2.7425,-0.546806 -4.14973,-0.860778 -1.40688,-0.3175 -2.83386,-0.677333 -4.25415,-1.192389 -1.41852,-0.508 -2.84056,-1.181806 -4.14478,-2.12725 -0.649815,-0.469195 -1.26506,-1.005417 -1.813277,-1.601611 L 98.3038,86.313629 98.111536,86.077267 97.920683,85.840906 97.7196,85.569267 c -0.0635,-0.08819 -0.137583,-0.1905 -0.190147,-0.268111 l -0.120297,-0.1905 -0.05997,-0.09525 -0.02999,-0.04586 -0.07303,-0.112889 -0.142522,-0.246944 c -0.383117,-0.659695 -0.691797,-1.337028 -0.931333,-2.017889 -0.244123,-0.680861 -0.426861,-1.361722 -0.53975,-2.035528 -0.118534,-0.673806 -0.191206,-1.337028 -0.208139,-1.986139 -0.02187,-0.645583 -0.0046,-1.280584 0.06315,-1.894417 0.02787,-0.306917 0.07585,-0.610305 0.122414,-0.910167 0.02046,-0.144639 0.0575,-0.310444 0.08643,-0.465666 0.03069,-0.151695 0.06244,-0.331611 0.09384,-0.437445 0.03105,-0.123472 0.06244,-0.243416 0.09349,-0.366889 l 0.01164,-0.04586 c 0.0014,-0.0035 0.02469,-0.116416 0.02187,-0.09172 l 0.03034,-0.105833 0.05962,-0.204611 c 0.07585,-0.275167 0.169686,-0.543278 0.25788,-0.804334 0.758472,-2.0955 1.834445,-3.774722 2.940756,-5.122334 0.137936,-0.169333 0.274814,-0.335138 0.415219,-0.493888 0.136878,-0.15875 0.276578,-0.313973 0.418039,-0.462139 0.13759,-0.148167 0.27905,-0.296334 0.4244,-0.440973 0.0716,-0.07408 0.14252,-0.144639 0.21272,-0.215194 0.0667,-0.0635 0.13265,-0.127 0.19826,-0.186972 0.54751,-0.529167 1.09467,-0.994834 1.62454,-1.400528 1.05657,-0.814917 2.04647,-1.386417 2.87938,-1.767417 0.83537,-0.388056 1.49824,-0.589139 1.9625,-0.709083 0.23424,-0.0635 0.39546,-0.08819 0.50906,-0.112889 0.11218,-0.0247 0.16898,-0.03528 0.16898,-0.03528 l 0.25329,0.691444"
       style="fill:#e7e393;fill-opacity:1;fill-rule:nonzero;stroke:none;stroke-width:0.0352778"
       id="path36" />
    <path
       d="m 126.20958,111.17035 c 0,0 0.0914,-0.0423 0.26847,-0.12347 0.17321,-0.0776 0.45437,-0.18344 0.75741,-0.34572 0.61736,-0.29986 1.53564,-0.77259 2.52801,-1.47109 0.99871,-0.6985 2.07786,-1.64747 3.06352,-2.86102 0.49212,-0.60678 0.95673,-1.28411 1.37548,-2.02142 0.42051,-0.73731 0.79269,-1.54164 1.08444,-2.40242 0.29069,-0.86077 0.53058,-1.77094 0.65087,-2.730497 0.0737,-0.47625 0.0935,-0.966611 0.13265,-1.4605 0.0166,-0.497417 0.0395,-1.001889 0.025,-1.520473 l -0.002,-0.194027 -3.5e-4,-0.04939 3.5e-4,-0.02469 c 0.0198,0.141111 0.005,0.02117 0.008,0.04586 l -0.008,-0.123472 c -0.0102,-0.165805 -0.0205,-0.331611 -0.0307,-0.497417 -0.008,-0.162277 -0.0159,-0.328083 -0.024,-0.493889 -0.008,-0.134055 -0.0169,-0.268111 -0.0254,-0.402166 -0.009,-0.137584 -0.0116,-0.275167 -0.0173,-0.41275 -0.008,-0.141111 -0.0265,-0.296334 -0.037,-0.4445 -0.0268,-0.296334 -0.0385,-0.60325 -0.0811,-0.906639 -0.127,-1.224139 -0.3355,-2.501195 -0.69921,-3.799417 -0.35983,-1.294695 -0.88335,-2.596445 -1.58044,-3.834695 -0.69321,-1.241778 -1.55999,-2.413 -2.53436,-3.513667 -0.97437,-1.104194 -2.04399,-2.148416 -3.18488,-3.139722 -1.14018,-0.998361 -2.34844,-1.947334 -3.57117,-2.913945 -1.22202,-0.970139 -2.4518,-1.9685 -3.61703,-3.069167 -0.58173,-0.550333 -1.15111,-1.118305 -1.69192,-1.721555 -0.0688,-0.07408 -0.13723,-0.151695 -0.20355,-0.225778 l -0.10054,-0.116417 -0.025,-0.02822 c -0.0279,-0.03528 0.0265,0.04586 -0.0684,-0.08819 l -0.0452,-0.05644 -0.36089,-0.433917 -0.35771,-0.437444 -0.17639,-0.218722 -0.18945,-0.268111 c -0.2487,-0.359834 -0.49706,-0.723195 -0.74471,-1.083028 -0.22719,-0.359834 -0.43991,-0.712611 -0.65899,-1.072445 -0.22578,-0.352778 -0.41169,-0.733778 -0.61277,-1.100666 l -0.29598,-0.557389 c -0.0928,-0.186973 -0.17886,-0.381 -0.26811,-0.5715 -0.72073,-1.520473 -1.29011,-3.118556 -1.65912,-4.737806 -0.37253,-1.622778 -0.55457,-3.259667 -0.56056,-4.850695 -0.0131,-1.594556 0.17533,-3.129139 0.46566,-4.575528 0.13441,-0.73025 0.32879,-1.425222 0.51224,-2.113139 0.2099,-0.673806 0.40992,-1.340556 0.65369,-1.9685 0.22261,-0.642056 0.49072,-1.241778 0.73943,-1.837973 0.27552,-0.582083 0.52987,-1.160639 0.81315,-1.700389 1.11725,-2.183694 2.32763,-4.025194 3.48015,-5.573889 1.15182,-1.552222 2.24614,-2.815167 3.18312,-3.824111 0.93697,-1.005417 1.7145,-1.756834 2.25707,-2.261306 0.54363,-0.500944 0.85125,-0.754944 0.85125,-0.754944 l 0.58702,0.370416 c 0,0 -0.0977,0.388056 -0.31432,1.090084 -0.21378,0.705555 -0.54187,1.725083 -0.97261,2.998611 -0.42651,1.252361 -0.94439,2.776361 -1.53846,4.522611 -0.58138,1.721556 -1.20156,3.640667 -1.75437,5.70089 -0.15275,0.511527 -0.26705,1.037166 -0.40393,1.569861 -0.11289,0.532694 -0.24976,1.068917 -0.35031,1.612194 -0.11641,0.546806 -0.20425,1.097139 -0.30162,1.654528 -0.0759,0.553861 -0.16722,1.114778 -0.22049,1.679223 -0.25329,2.257778 -0.29174,4.554361 0.007,6.910917 0.0473,0.292805 0.0804,0.592666 0.13017,0.889 0.0575,0.296333 0.11466,0.592666 0.17251,0.889 0.14817,0.592667 0.28505,1.195917 0.48578,1.788583 0.0473,0.151695 0.0903,0.303389 0.1404,0.451556 l 0.16828,0.4445 c 0.11571,0.299861 0.21307,0.60325 0.35348,0.896056 0.13088,0.296333 0.26282,0.592666 0.39476,0.889 0.14005,0.275166 0.27763,0.550333 0.41487,0.832555 l 0.1023,0.211667 0.14005,0.246944 0.27517,0.490361 0.27305,0.497417 0.0342,0.05997 c -0.0815,-0.112889 -0.0131,-0.01411 -0.0268,-0.03175 l 0.0169,0.02822 0.067,0.112889 c 0.0452,0.07408 0.0889,0.151694 0.13194,0.229305 l 0.26105,0.458611 0.27482,0.458611 c 0.17568,0.313973 0.36371,0.620889 0.55245,0.931334 0.74859,1.245305 1.53917,2.518833 2.37843,3.781778 0.8389,1.262944 1.72967,2.50825 2.6617,3.721806 0.93134,1.210027 1.90712,2.38125 2.88467,3.545416 0.99377,1.167695 1.97944,2.328334 2.95345,3.474862 0.98567,1.160639 1.97239,2.335389 2.88396,3.591278 0.90946,1.252361 1.73179,2.589389 2.3682,4.0005 0.16545,0.34925 0.31045,0.705556 0.44415,1.065389 0.0677,0.179917 0.13864,0.356306 0.19932,0.543278 0.0593,0.1905 0.12065,0.384528 0.17603,0.575028 0.0557,0.194027 0.11113,0.388055 0.16651,0.582083 0.0406,0.162278 0.0808,0.324556 0.12101,0.486833 0.0374,0.162278 0.0748,0.324556 0.11183,0.486834 l 0.0275,0.119944 0.0339,0.215195 0.0441,0.292805 c 0.12806,0.779639 0.15875,1.566334 0.14746,2.335389 -0.0194,0.384528 -0.03,0.769056 -0.0822,1.146528 -0.0212,0.186972 -0.0434,0.377472 -0.0705,0.560917 -0.0332,0.186972 -0.066,0.370418 -0.0988,0.553858 -0.27058,1.47109 -0.756,2.83987 -1.37019,4.06753 -1.22626,2.46945 -3.00531,4.32506 -4.79284,5.55625 -1.79599,1.23825 -3.59657,1.86267 -5.07294,2.1202 -0.18557,0.0318 -0.36372,0.067 -0.5387,0.0882 -0.17603,0.0176 -0.34678,0.0353 -0.51223,0.0529 -0.32667,0.0423 -0.63959,0.0388 -0.92428,0.0459 -0.5722,0.004 -1.05057,-0.0353 -1.44921,-0.0847 -0.39899,-0.0423 -0.66393,-0.11641 -0.85654,-0.15875 -0.18909,-0.0459 -0.28681,-0.0705 -0.28681,-0.0705 l -0.0656,-0.69145"
       style="fill:#e7e393;fill-opacity:1;fill-rule:nonzero;stroke:none;stroke-width:0.0352778"
       id="path38" />
    <path
       d="m 118.37333,184.39997 c -16.8783,0 -30.560789,-5.96195 -30.560789,-13.31384 0,-0.34572 0.02999,-0.68438 0.08819,-1.01952 -4.353984,2.30011 -6.969479,5.24933 -6.969479,8.46314 0,7.35541 13.682487,13.31736 30.560798,13.31736 16.0916,0 29.27807,-5.41867 30.47259,-12.29784 -5.60529,2.96334 -14.09242,4.8507 -23.59131,4.8507"
       style="fill:#e7e393;fill-opacity:1;fill-rule:nonzero;stroke:none;stroke-width:0.0352778"
       id="path40" />
  </g>
</svg>
