<?xml version="1.0" encoding="UTF-8" standalone="no"?>
<!-- Created with Inkscape (http://www.inkscape.org/) -->

<svg
   width="210mm"
   height="297mm"
   viewBox="0 0 210 297"
   version="1.1"
   id="svg2983"
   inkscape:version="1.2 (dc2aedaf03, 2022-05-15)"
   sodipodi:docname="cupYellow2.svg"
   xmlns:inkscape="http://www.inkscape.org/namespaces/inkscape"
   xmlns:sodipodi="http://sodipodi.sourceforge.net/DTD/sodipodi-0.dtd"
   xmlns="http://www.w3.org/2000/svg"
   xmlns:svg="http://www.w3.org/2000/svg">
  <sodipodi:namedview
     id="namedview2985"
     pagecolor="#505050"
     bordercolor="#eeeeee"
     borderopacity="1"
     inkscape:showpageshadow="0"
     inkscape:pageopacity="0"
     inkscape:pagecheckerboard="0"
     inkscape:deskcolor="#505050"
     inkscape:document-units="mm"
     showgrid="false"
     inkscape:zoom="0.74564394"
     inkscape:cx="396.97231"
     inkscape:cy="561.9304"
     inkscape:window-width="1920"
     inkscape:window-height="1017"
     inkscape:window-x="-8"
     inkscape:window-y="-8"
     inkscape:window-maximized="1"
     inkscape:current-layer="layer1" />
  <defs
     id="defs2980" />
  <g
     inkscape:label="Calque 1"
     inkscape:groupmode="layer"
     id="layer1">
    <path
       d="m 45.391344,146.28254 c 0,0 0.08467,0.46214 0.243417,1.32291 0.08114,0.42687 0.183444,0.9525 0.303389,1.56987 0.134055,0.61383 0.275166,1.31938 0.455083,2.09902 0.08467,0.39511 0.1905,0.80434 0.296333,1.2312 0.09525,0.43039 0.211667,0.87841 0.335139,1.34055 0.246945,0.92781 0.536222,1.92264 0.853723,2.97392 0.172861,0.52211 0.345722,1.06186 0.532694,1.60867 0.09525,0.27516 0.1905,0.55386 0.28575,0.83608 0.102306,0.2787 0.208139,0.56445 0.313972,0.8502 0.437445,1.13947 0.899584,2.32833 1.446389,3.53836 1.097139,2.41652 2.416528,4.94594 4.035778,7.44714 1.61925,2.50472 3.52425,4.98122 5.715001,7.30955 1.090083,1.16417 2.268361,2.27895 3.496028,3.35139 1.234722,1.06539 2.532944,2.08492 3.894667,3.01978 2.712861,1.88736 5.669139,3.48192 8.755945,4.68842 3.086805,1.19944 6.304139,2.02847 9.510889,2.37772 0.800806,0.0952 1.598083,0.15522 2.395361,0.18697 l 0.596195,0.0247 0.07761,0.004 c 0.07761,0 -0.06703,0 -0.03528,0 h 0.04233 l 0.165806,0.004 h 0.335139 l 0.670278,0.007 h 0.165805 l 0.144639,-0.004 0.278695,-0.0106 c 0.73025,-0.0106 1.545166,-0.0459 2.328333,-0.11289 0.783167,-0.067 1.562806,-0.14817 2.331861,-0.25753 3.083278,-0.43392 6.025437,-1.25589 8.745357,-2.3107 2.72345,-1.04422 5.21053,-2.35302 7.44008,-3.7218 1.1042,-0.6985 2.16253,-1.39347 3.13267,-2.11314 0.48331,-0.36336 0.96309,-0.70908 1.41464,-1.06539 0.45156,-0.35983 0.89606,-0.70203 1.30881,-1.05833 0.20814,-0.17639 0.41627,-0.34573 0.62089,-0.51506 0.19755,-0.17286 0.39511,-0.34572 0.58913,-0.51505 0.39159,-0.33162 0.74789,-0.67381 1.10067,-0.99484 0.35983,-0.3175 0.68792,-0.63853 1.00542,-0.94544 0.32103,-0.29986 0.61383,-0.59972 0.89958,-0.88195 0.57503,-0.56091 1.05481,-1.09361 1.49931,-1.54164 0.42686,-0.46213 0.79375,-0.85725 1.08655,-1.17475 0.28928,-0.32808 0.51859,-0.57502 0.67028,-0.74083 0.15522,-0.16933 0.23283,-0.25753 0.23283,-0.25753 0,0 -0.0388,0.11289 -0.11641,0.32456 -0.0776,0.21519 -0.1905,0.53269 -0.34925,0.94544 -0.15875,0.41275 -0.37395,0.91017 -0.62795,1.49931 -0.26458,0.58208 -0.57503,1.25589 -0.95955,1.98967 -0.18698,0.37041 -0.39511,0.75494 -0.62442,1.15358 -0.22931,0.39864 -0.46214,0.82197 -0.73025,1.24883 -0.26106,0.42686 -0.53975,0.87136 -0.84667,1.32292 -0.15169,0.22578 -0.30691,0.45508 -0.46214,0.69144 -0.1658,0.22931 -0.33161,0.46214 -0.50094,0.70203 -0.69144,0.94545 -1.46756,1.92617 -2.33892,2.92453 -0.4445,0.49036 -0.89958,0.99836 -1.38994,1.49578 -0.47978,0.508 -0.99836,1.00189 -1.53106,1.50636 -2.159,1.98261 -4.72722,3.94405 -7.72936,5.59858 -2.99508,1.66159 -6.4135,3.04447 -10.124718,3.88409 -0.927805,0.20461 -1.866194,0.39511 -2.82575,0.53269 -0.47625,0.0847 -0.959555,0.127 -1.442861,0.1905 -0.472722,0.0635 -0.998361,0.0988 -1.506361,0.13758 l -0.384528,0.0282 -0.1905,0.0141 -0.169333,0.007 -0.66675,0.0318 -0.335139,0.0141 -0.169334,0.007 h -0.04233 l -0.116417,0.004 h -0.09525 l -0.747889,0.004 c -0.998361,-0.0106 -2.003778,-0.0494 -3.005666,-0.13405 -4.014612,-0.33514 -8.01864,-1.31233 -11.775723,-2.82928 -1.876778,-0.762 -3.70064,-1.64042 -5.436306,-2.64936 -0.874889,-0.49742 -1.718028,-1.03011 -2.550584,-1.58044 -0.821972,-0.56445 -1.633361,-1.13242 -2.413,-1.7392 -1.562806,-1.2065 -3.033889,-2.49767 -4.392084,-3.85939 -0.687916,-0.6738 -1.337027,-1.37583 -1.964972,-2.08492 -0.313972,-0.35277 -0.617361,-0.71613 -0.924278,-1.06891 -0.296333,-0.36689 -0.592666,-0.72672 -0.874889,-1.09361 -2.289528,-2.93159 -4.138083,-6.01486 -5.55625,-9.06639 -1.421695,-3.05153 -2.430639,-6.06073 -3.104445,-8.87589 -0.342194,-1.40759 -0.606778,-2.76578 -0.800805,-4.06047 -0.201084,-1.2947 -0.328084,-2.52942 -0.416278,-3.68653 -0.07761,-1.15711 -0.130528,-2.23661 -0.123472,-3.2385 -0.01058,-0.99484 0.01764,-1.91206 0.06703,-2.73403 0.07761,-1.64395 0.246945,-2.92806 0.363362,-3.79942 0.137583,-0.8643 0.215194,-1.32644 0.215194,-1.32644"
       style="fill:#e7e393;fill-opacity:1;fill-rule:nonzero;stroke:none;stroke-width:0.0352778"
       id="path16" />
    <path
       d="m 45.391344,146.28254 c 0,0 0.155222,0.30339 0.448028,0.86783 0.144639,0.28575 0.328083,0.635 0.543278,1.03717 0.109361,0.20108 0.22225,0.4198 0.345722,0.65264 0.127,0.2293 0.264583,0.47272 0.405694,0.73025 0.567973,1.03011 1.280584,2.26483 2.148417,3.63714 0.437445,0.68086 0.906639,1.40405 1.418167,2.15194 0.511528,0.74436 1.072444,1.51342 1.658056,2.30364 0.299861,0.39158 0.60325,0.79375 0.924277,1.19239 0.324556,0.39511 0.645584,0.80433 0.987778,1.2065 0.670278,0.81492 1.404056,1.6263 2.166056,2.43769 0.762,0.81845 1.569861,1.62278 2.416528,2.42359 0.85725,0.78669 1.739194,1.58044 2.670528,2.34244 1.866194,1.52047 3.877028,2.95981 6.018389,4.24745 2.141361,1.28763 4.406195,2.42005 6.734528,3.3655 2.331862,0.93839 4.727223,1.6898 7.122584,2.21897 2.395361,0.53269 4.790723,0.85725 7.104945,0.96308 2.31775,0.10936 4.561417,0.0176 6.656917,-0.24694 2.0955,-0.26459 4.049889,-0.68086 5.806724,-1.21356 0.10936,-0.0317 0.21872,-0.067 0.32808,-0.0988 l 0.16228,-0.0494 0.0811,-0.0212 0.0212,-0.007 c 0.0141,-0.004 -0.0459,0.0176 -0.0106,0.004 l 0.0459,-0.0106 c 0.23989,-0.0635 0.47273,-0.13053 0.70909,-0.1905 0.42333,-0.10936 0.83255,-0.21872 1.23472,-0.32103 0.83608,-0.21519 1.62983,-0.41981 2.37419,-0.61383 1.50989,-0.38453 2.87161,-0.72673 4.03225,-1.00542 1.16064,-0.28222 2.12373,-0.48683 2.80106,-0.62089 0.33867,-0.06 0.60325,-0.11289 0.78669,-0.14111 0.18698,-0.0247 0.28223,-0.0388 0.28223,-0.0388 0,0 -0.0388,0.0882 -0.11289,0.26106 -0.0776,0.16581 -0.19403,0.41628 -0.36336,0.72319 -0.33867,0.61737 -0.88548,1.4852 -1.7145,2.46945 -0.82903,0.98425 -1.95087,2.0708 -3.3902,3.12914 -0.72319,0.52211 -1.52753,1.03364 -2.40594,1.50636 -0.22578,0.11642 -0.44098,0.23636 -0.68086,0.35278 -0.23989,0.11289 -0.48331,0.22577 -0.73025,0.34219 -0.21873,0.0988 -0.4445,0.19403 -0.67381,0.29281 l -0.0423,0.0176 c 0.0212,-0.007 -0.0529,0.0212 -0.0529,0.0212 l -0.0247,0.007 -0.0953,0.0353 -0.19403,0.0635 c -0.13053,0.0459 -0.25753,0.0882 -0.38806,0.13405 -1.04775,0.3422 -2.15194,0.66675 -3.309054,0.93486 -1.153583,0.26811 -2.360083,0.49389 -3.605389,0.66675 -2.494139,0.3422 -5.150556,0.45861 -7.877528,0.30692 -2.726972,-0.14817 -5.520973,-0.58208 -8.283223,-1.28411 -2.758722,-0.70909 -5.489222,-1.68275 -8.089195,-2.91042 -2.6035,-1.22414 -5.076472,-2.69875 -7.358945,-4.33564 -2.278944,-1.64394 -4.363861,-3.45722 -6.212417,-5.36222 -0.92075,-0.95603 -1.802694,-1.91558 -2.607028,-2.89983 -0.804333,-0.98425 -1.559278,-1.9685 -2.257778,-2.94923 -1.375833,-1.97908 -2.543528,-3.92641 -3.4925,-5.78202 -0.229305,-0.46567 -0.465667,-0.91723 -0.677333,-1.36878 -0.204611,-0.45156 -0.416278,-0.88547 -0.599722,-1.32292 -0.381,-0.86431 -0.716139,-1.69333 -1.008945,-2.48003 -0.592667,-1.56986 -1.016,-2.96333 -1.3335,-4.11691 -0.15875,-0.57856 -0.292806,-1.09362 -0.398639,-1.54517 -0.105833,-0.45508 -0.194028,-0.83608 -0.257528,-1.15006 -0.123472,-0.62441 -0.186972,-0.95955 -0.186972,-0.95955"
       style="fill:#e7e393;fill-opacity:1;fill-rule:nonzero;stroke:none;stroke-width:0.0352778"
       id="path18" />
    <path
       d="m 123.70802,175.19973 c 0.46566,-0.47272 0.93838,-0.93838 1.41463,-1.38641 0.48331,-0.45509 0.92781,-0.91723 1.38642,-1.36878 0.46567,-0.43039 0.90664,-0.90664 1.35467,-1.3582 l 0.67028,-0.67733 c 0.21519,-0.23283 0.42686,-0.46919 0.64558,-0.6985 l 0.64558,-0.68792 c 0.21167,-0.2293 0.41628,-0.46919 0.62442,-0.70202 l 0.62089,-0.69498 c 0.20461,-0.2293 0.39864,-0.47272 0.59619,-0.70908 l 0.5962,-0.70555 c 0.19403,-0.23637 0.37747,-0.48331 0.56797,-0.71967 l 0.56444,-0.71614 0.5327,-0.73378 c 0.17639,-0.24341 0.36336,-0.47978 0.52917,-0.72672 l 0.50447,-0.74083 c 0.1658,-0.24695 0.33514,-0.49036 0.48683,-0.74436 l 0.4692,-0.74789 c 0.16227,-0.24695 0.2928,-0.508 0.44097,-0.75848 0.14464,-0.254 0.2928,-0.50094 0.43039,-0.75494 0.13052,-0.26106 0.26105,-0.51506 0.39511,-0.76906 l 0.19755,-0.381 0.17992,-0.38805 0.35983,-0.77258 0.31398,-0.77964 c 0.0529,-0.127 0.10936,-0.25753 0.15875,-0.38453 l 0.13758,-0.39159 c 0.0917,-0.26105 0.19755,-0.51858 0.27517,-0.78316 0.33866,-1.0407 0.58208,-2.08492 0.75141,-3.11503 0.16934,-1.03011 0.21872,-2.04258 0.17639,-3.00567 -0.0529,-0.96308 -0.20461,-1.87325 -0.47272,-2.667 -0.26106,-0.79727 -0.64206,-1.45344 -1.05481,-1.90852 -0.0952,-0.13053 -0.20814,-0.2152 -0.31044,-0.3175 l -0.0388,-0.0423 -0.004,-0.004 c 0.17991,0.13053 0.0423,0.0318 0.0811,0.06 l -0.0247,-0.0176 -0.0494,-0.0388 -0.1905,-0.14464 -0.19403,-0.14111 c -0.0247,-0.0141 -0.0529,-0.0317 -0.0776,-0.0494 -0.0776,-0.06 -0.26458,-0.17286 -0.41628,-0.26105 l -0.23636,-0.127 c -0.0811,-0.0317 -0.15875,-0.067 -0.23989,-0.10584 -0.63852,-0.26458 -1.29116,-0.37747 -2.00025,-0.32808 -0.70555,0.0565 -1.47108,0.28222 -2.22955,0.71614 -0.75495,0.42333 -1.50284,1.03364 -2.17311,1.78506 -0.68086,0.74436 -1.27706,1.63336 -1.80975,2.6035 l 0.15522,-0.87137 -0.11289,0.92075 -0.13053,0.91723 c -0.0988,0.6103 -0.20461,1.21708 -0.32455,1.82386 l -0.1905,0.90311 -0.20814,0.89958 c -0.14817,0.5962 -0.30339,1.19239 -0.47978,1.78153 -0.17639,0.58561 -0.35631,1.17122 -0.55386,1.74978 -0.20814,0.57855 -0.41275,1.15358 -0.64206,1.72155 l -0.34925,0.84314 c -0.11994,0.28223 -0.254,0.55739 -0.37747,0.83609 -0.254,0.55386 -0.53622,1.09714 -0.82903,1.63336 -0.007,-0.30692 -0.0176,-0.61384 -0.0176,-0.9137 -0.007,-0.30339 -0.0106,-0.60677 -0.0141,-0.90664 l -0.0353,-1.79211 c -0.0141,-0.29633 -0.0141,-0.59266 -0.0212,-0.889 l -0.0318,-0.88547 -0.0353,-0.87842 -0.0423,-0.87841 -0.10936,-1.7392 -0.13406,-1.72861 -0.0776,-0.86078 -0.0882,-0.85372 c -0.0564,-0.5715 -0.127,-1.13947 -0.19403,-1.70392 l -0.0212,-0.1905 0.17992,-0.68086 c 0.37394,-1.43227 0.93133,-2.85397 1.72861,-4.20864 0.40569,-0.6738 0.86078,-1.3335 1.38642,-1.95791 0.53269,-0.61736 1.12536,-1.21003 1.78858,-1.74272 1.32292,-1.07245 2.9598,-1.91912 4.78367,-2.3107 1.8168,-0.40217 3.80294,-0.30339 5.59152,0.27164 l 0.66323,0.23283 c 0.21519,0.0847 0.42686,0.17639 0.63852,0.26811 0.42334,0.19756 0.80434,0.38453 1.26648,0.67381 l 0.32808,0.20461 0.20108,0.13406 0.20109,0.13758 0.0494,0.0317 0.0247,0.0176 0.10583,0.0776 0.0176,0.0141 0.14464,0.11642 c 0.38806,0.31044 0.77964,0.62441 1.10772,0.98072 0.6985,0.69144 1.23473,1.4605 1.72156,2.24367 0.11994,0.19755 0.21519,0.39864 0.32103,0.59619 0.0988,0.20108 0.21166,0.40217 0.29633,0.60678 l 0.254,0.60678 c 0.0811,0.20461 0.16933,0.40922 0.22931,0.61383 0.55386,1.64042 0.8008,3.29142 0.82902,4.89303 0.0318,1.60161 -0.14464,3.16089 -0.4833,4.64608 -0.33867,1.48872 -0.81139,2.91395 -1.40053,4.26509 -0.14464,0.34219 -0.31397,0.66675 -0.46919,0.99836 l -0.23989,0.49036 c -0.0811,0.1658 -0.17639,0.32103 -0.26459,0.47978 l -0.53269,0.94897 -0.57856,0.91016 -0.2928,0.45156 -0.31045,0.43392 c -0.20814,0.28927 -0.41627,0.57855 -0.62794,0.8643 -0.2152,0.2787 -0.44097,0.55034 -0.66322,0.8255 -0.22578,0.27164 -0.44098,0.55034 -0.68439,0.80434 -0.47272,0.51505 -0.93134,1.04775 -1.43934,1.52047 l -0.74436,0.72672 c -0.25047,0.23636 -0.51505,0.45861 -0.77258,0.68792 l -0.77964,0.6738 -0.80786,0.635 c -0.27164,0.20461 -0.53622,0.41981 -0.81139,0.61736 l -0.83961,0.58209 c -0.27869,0.19402 -0.55386,0.39158 -0.83961,0.5715 l -0.86078,0.52916 c -0.28928,0.17286 -0.57503,0.35278 -0.8643,0.52211 l -0.88548,0.47625 c -0.2928,0.16228 -0.59266,0.31398 -0.889,0.4692 l -0.90311,0.43039 c -0.60325,0.28222 -1.2065,0.55739 -1.83092,0.8008 l -0.93486,0.36337 -0.46214,0.17638 c -0.15522,0.0564 -0.31397,0.10231 -0.46919,0.15523 -0.62442,0.20461 -1.25589,0.39864 -1.89794,0.57502"
       style="fill:#e7e393;fill-opacity:1;fill-rule:nonzero;stroke:none;stroke-width:0.0352778"
       id="path20" />
    <path
       d="m 58.980345,136.50001 c 0,0 -0.532695,0.17639 -1.531056,0.508 -0.998361,0.33161 -2.465917,0.8008 -4.2545,1.49931 -0.889,0.36336 -1.866195,0.76552 -2.839861,1.29822 -0.486834,0.26811 -0.980723,0.55386 -1.439334,0.88194 -0.455083,0.32809 -0.885472,0.69497 -1.210028,1.08656 -0.335139,0.39158 -0.511527,0.79728 -0.557389,1.13594 -0.01058,0.0423 -0.0071,0.0847 -0.0071,0.127 0,0.0423 -0.0035,0.0811 -0.0035,0.12347 0.0071,0.0459 0.01411,0.0882 0.01764,0.13053 l 0.0035,0.0282 v 0.0176 c 0,-0.0317 0.0035,0.0917 0,-0.067 l 0.01764,0.14111 c 0.0071,0.0423 0.01411,0.0988 0.02117,0.127 l 0.01764,0.0106 c 0.0071,0.004 0.0071,0.004 0.01411,0.0141 l 0.02822,0.0529 c 0.01058,0.0317 0.03175,0.0705 0.05644,0.10583 0.01764,0.0388 0.04233,0.0741 0.07056,0.11289 0.204611,0.30692 0.564444,0.68439 1.065389,1.03717 0.493888,0.35277 1.093611,0.69144 1.756833,0.99483 1.319389,0.61383 2.853972,1.13242 4.487334,1.56281 1.633361,0.43038 3.369028,0.81138 5.182305,1.11477 3.623028,0.61384 7.517695,1.0407 11.567585,1.30881 4.049889,0.26811 8.258528,0.38453 12.530667,0.3563 0.532694,-0.007 1.061861,-0.0141 1.594556,-0.0176 0.543277,-0.0106 1.083027,-0.0212 1.626305,-0.0317 1.068917,-0.0282 2.151945,-0.0635 3.227917,-0.10584 2.159,-0.0952 4.318,-0.21519 6.473473,-0.39511 4.303889,-0.34925 8.586609,-0.8643 12.685889,-1.64747 1.02659,-0.19403 2.03553,-0.4057 3.03036,-0.64206 0.99131,-0.23283 1.9685,-0.4833 2.91395,-0.76552 0.94544,-0.2787 1.86619,-0.57856 2.7305,-0.91723 0.8643,-0.33514 1.67922,-0.6985 2.38125,-1.09361 0.69497,-0.38453 1.28411,-0.82197 1.56633,-1.1183 0.14817,-0.14817 0.18697,-0.22931 0.20461,-0.2152 0.007,0.0106 0.0176,0.0423 0.0212,0.0741 0.004,0.004 0.004,0.007 0.007,0.0106 0,-0.13053 0.007,0.1905 0.007,0.13758 v -0.0494 -0.18697 c 0,-0.0176 0,0.0106 0,0.0176 v 0.0282 c 0.004,0.0212 0.007,0.0423 0.0106,0.0635 0.004,0.0176 0.0106,0.0494 0.0106,0.0494 0.004,0.004 0.004,0.004 0.007,0.007 0.0317,0.0282 0.0317,-0.0565 -0.0494,-0.2152 -0.0776,-0.15522 -0.25047,-0.37747 -0.46566,-0.59972 -0.43745,-0.45156 -1.06892,-0.92075 -1.75331,-1.35114 -1.37583,-0.87136 -2.97391,-1.57692 -4.5473,-2.20486 -1.58045,-0.635 -3.175,-1.15358 -4.72723,-1.62983 -1.54869,-0.47978 -3.06564,-0.87842 -4.51555,-1.25237 -1.44992,-0.37394 -2.83986,-0.68438 -4.1522,-0.97719 -2.628193,-0.58208 -4.945944,-1.02306 -6.861527,-1.37583 -1.919111,-0.34925 -3.436056,-0.61031 -4.469695,-0.7867 -1.037167,-0.17991 -1.591028,-0.27869 -1.591028,-0.27869 0,0 0.137584,-0.0141 0.409223,-0.0459 0.271638,-0.0318 0.673805,-0.0811 1.195916,-0.13053 0.525639,-0.0529 1.17475,-0.11289 1.93675,-0.16581 0.762,-0.06 1.640417,-0.11641 2.624667,-0.15875 1.9685,-0.0917 4.363862,-0.13758 7.122584,-0.0529 2.75872,0.0882 5.87728,0.30339 9.29217,0.81139 1.70744,0.254 3.48192,0.59972 5.33047,1.06186 1.84856,0.47625 3.75356,1.07597 5.75028,2.01436 0.99836,0.47978 2.01789,1.0548 3.05153,1.89794 0.51858,0.43039 1.04422,0.92075 1.53458,1.58045 0.48331,0.65264 0.94897,1.47461 1.18886,2.49061 l 0.0459,0.1905 c 0.0141,0.0635 0.0282,0.15875 0.0423,0.23636 l 0.0317,0.24694 0.0282,0.23637 0.0141,0.1905 0.004,0.0459 c 0.004,-0.0247 0.0106,0.32808 0.007,0.2293 l -0.004,0.20109 c -0.007,0.53975 -0.0988,1.06891 -0.23637,1.5628 -0.28575,0.98778 -0.75847,1.80622 -1.25236,2.45886 -1.00541,1.30528 -2.0955,2.13078 -3.16441,2.84692 -0.53975,0.3563 -1.07598,0.66675 -1.61573,0.95955 -0.53622,0.29634 -1.0795,0.55739 -1.61925,0.80434 -1.08655,0.49741 -2.17311,0.9278 -3.27025,1.31233 -2.19075,0.76553 -4.41325,1.36878 -6.65339,1.87678 -4.48027,1.00542 -9.04522,1.62278 -13.613692,1.99672 -2.282473,0.17992 -4.568473,0.29986 -6.840362,0.35278 -1.139472,0.0317 -2.268361,0.0423 -3.407834,0.0388 -0.560916,-0.004 -1.118305,-0.007 -1.679222,-0.0106 -0.585611,-0.007 -1.132417,-0.0176 -1.696861,-0.0353 -4.490862,-0.11641 -8.904112,-0.46919 -13.155084,-1.05127 -4.254501,-0.58209 -8.346723,-1.38995 -12.181418,-2.48356 -1.915583,-0.55739 -3.774722,-1.16064 -5.545667,-1.89089 -0.885472,-0.36336 -1.753305,-0.75494 -2.596444,-1.17828 -0.843139,-0.42333 -1.665112,-0.87841 -2.451806,-1.40758 -0.790222,-0.52211 -1.548695,-1.10772 -2.25425,-1.80975 -0.6985,-0.69497 -1.368778,-1.53811 -1.778,-2.63172 -0.04939,-0.13406 -0.09878,-0.27164 -0.134056,-0.41628 -0.04233,-0.14111 -0.07761,-0.28575 -0.102305,-0.43392 l -0.03881,-0.22225 c -0.01058,-0.0811 -0.02117,-0.17639 -0.02822,-0.26458 l -0.01764,-0.26458 c -0.0035,-0.0635 0,-0.0988 0.0035,-0.14817 l 0.0035,-0.14111 c -0.0035,-0.17992 0.0035,-0.0811 0.0035,-0.13406 l 0.0035,-0.0529 0.01411,-0.10584 c 0.01411,-0.14111 0.03175,-0.28222 0.05292,-0.4198 0.02822,-0.14111 0.0635,-0.2787 0.09878,-0.41275 0.03528,-0.13759 0.07055,-0.27164 0.127,-0.39511 0.391583,-1.0407 1.065389,-1.80975 1.728611,-2.33186 0.66675,-0.5327 1.340555,-0.89253 1.986139,-1.18887 0.642055,-0.29633 1.27,-0.50447 1.869722,-0.68439 1.199445,-0.35277 2.293056,-0.56091 3.284361,-0.71261 0.987778,-0.15169 1.869723,-0.24341 2.635251,-0.30691 0.765527,-0.067 1.414639,-0.10231 1.940278,-0.13053 0.529166,-0.0282 0.931333,-0.0353 1.202972,-0.0494 0.271639,-0.0106 0.41275,-0.0141 0.41275,-0.0141"
       style="fill:#e7e393;fill-opacity:1;fill-rule:nonzero;stroke:none;stroke-width:0.0352778"
       id="path22" />
    <path
       d="m 98.12457,60.515199 c 0,0 -0.204612,0.275167 -0.585612,0.786694 -0.366889,0.511528 -0.903111,1.266473 -1.516944,2.243667 -0.606778,0.980723 -1.30175,2.183695 -1.950861,3.601862 -0.328084,0.709083 -0.645584,1.464028 -0.934862,2.271889 -0.28575,0.807861 -0.560916,1.658055 -0.765527,2.550583 -0.433917,1.774473 -0.659695,3.711223 -0.515056,5.633862 0.07408,0.959555 0.243417,1.915583 0.518583,2.839861 0.07761,0.225778 0.148167,0.455083 0.229306,0.684389 0.09525,0.22225 0.169333,0.451555 0.271639,0.670278 0.105833,0.218722 0.1905,0.4445 0.313972,0.656166 l 0.169333,0.321028 0.02117,0.04233 c -0.01764,-0.03175 0.04586,0.09878 -0.03528,-0.06703 l 0.01764,0.02469 0.05644,0.102306 0.116416,0.204611 0.236362,0.405694 c 0.04233,0.07761 0.07055,0.112889 0.102305,0.15875 l 0.09878,0.137584 0.186972,0.271639 0.229306,0.313972 0.232833,0.3175 0.254,0.313972 0.254,0.3175 0.275167,0.3175 c 0.733778,0.853722 1.573389,1.707445 2.469444,2.607028 0.899584,0.899583 1.866195,1.837972 2.832804,2.878667 l 0.72673,0.797278 c 0.24341,0.278694 0.4833,0.553861 0.71966,0.839611 l 0.35631,0.440972 0.17639,0.22225 0.0882,0.112889 0.13758,0.186972 0.58562,0.807861 0.14816,0.204612 0.16581,0.257527 0.32808,0.518584 0.32808,0.522111 c 0.11289,0.176389 0.1905,0.335139 0.28928,0.504472 0.18345,0.335139 0.37042,0.670278 0.55034,1.008945 l 0.48683,1.033639 c 0.62442,1.386416 1.14653,2.811636 1.50989,4.261556 l 0.14464,0.53975 0.11641,0.54681 c 0.0741,0.36688 0.15523,0.72672 0.22225,1.09008 0.10231,0.73378 0.22578,1.45697 0.27517,2.18722 0.0811,0.72672 0.0882,1.45345 0.10936,2.16958 0.007,0.35984 -0.0141,0.71967 -0.0212,1.07598 -0.0141,0.3563 -0.0212,0.70908 -0.06,1.06186 -0.0318,0.35278 -0.067,0.70555 -0.0988,1.05128 -0.0423,0.34925 -0.1023,0.69497 -0.15169,1.03716 -0.0882,0.68792 -0.26458,1.3582 -0.40569,2.01789 -0.0882,0.32808 -0.18345,0.65264 -0.27164,0.9772 -0.0494,0.15875 -0.0952,0.32102 -0.14111,0.47977 l -0.0564,0.19756 -0.0388,0.10583 -0.0776,0.20814 c -0.1023,0.27517 -0.20108,0.55033 -0.29986,0.8255 -0.0459,0.127 -0.11994,0.29986 -0.18344,0.45156 -0.067,0.15875 -0.13406,0.31397 -0.19756,0.46919 -0.067,0.15522 -0.13405,0.31045 -0.20108,0.46214 l -0.0988,0.22931 -0.10583,0.21166 c -0.14111,0.2787 -0.28222,0.55739 -0.42333,0.83256 -0.13406,0.27869 -0.29281,0.53975 -0.44803,0.80433 -0.1517,0.26106 -0.30692,0.51859 -0.45861,0.77259 -0.33514,0.49388 -0.65264,0.98072 -0.99131,1.43933 -0.17286,0.22578 -0.34219,0.44803 -0.51153,0.67028 -0.0847,0.11289 -0.16933,0.22225 -0.254,0.33161 -0.0917,0.1023 -0.17991,0.20461 -0.26811,0.31044 -0.36336,0.4057 -0.70203,0.81492 -1.07597,1.17828 -0.36336,0.36689 -0.70556,0.73731 -1.08303,1.05128 -0.370416,0.32808 -0.716138,0.64911 -1.086555,0.93133 -0.366889,0.28222 -0.702028,0.57503 -1.068916,0.81139 -1.407584,1.01247 -2.741084,1.70392 -3.855862,2.19428 -0.278694,0.11641 -0.543278,0.2293 -0.790222,0.33514 -0.250472,0.1023 -0.497417,0.17639 -0.716139,0.254 -0.22225,0.0741 -0.426861,0.14464 -0.617361,0.20814 -0.186972,0.0635 -0.363361,0.0988 -0.518584,0.14463 -0.310444,0.0811 -0.553861,0.13759 -0.712611,0.17639 -0.15875,0.0388 -0.243416,0.0564 -0.243416,0.0564 0,0 0.268111,-0.21167 0.769055,-0.60678 0.250472,-0.18697 0.546806,-0.4445 0.892528,-0.73731 0.169333,-0.14816 0.356306,-0.29986 0.546806,-0.47625 0.1905,-0.17286 0.388055,-0.35983 0.599722,-0.55738 0.105833,-0.0988 0.211667,-0.19756 0.321028,-0.30339 0.105833,-0.10584 0.215194,-0.21873 0.324555,-0.33161 0.218723,-0.22578 0.455084,-0.45509 0.684389,-0.70556 0.225778,-0.26106 0.462139,-0.52564 0.705556,-0.79375 0.239889,-0.27517 0.472722,-0.57856 0.716139,-0.87842 0.959555,-1.22061 1.929694,-2.65641 2.783417,-4.29683 0.112889,-0.20461 0.211666,-0.41275 0.313972,-0.62442 0.09878,-0.21166 0.201083,-0.42686 0.306917,-0.64205 0.197555,-0.43039 0.370416,-0.88547 0.560922,-1.3335 0.0776,-0.23284 0.15875,-0.46567 0.24694,-0.6985 0.0847,-0.23284 0.17286,-0.46214 0.23989,-0.70556 0.0706,-0.23989 0.14464,-0.47978 0.21519,-0.72319 l 0.0564,-0.17992 0.0423,-0.17286 c 0.0282,-0.11642 0.0565,-0.23283 0.0847,-0.34925 0.0282,-0.11289 0.0564,-0.22931 0.0847,-0.34572 0.0247,-0.11995 0.0564,-0.2152 0.0847,-0.37042 0.06,-0.28575 0.11642,-0.57503 0.17639,-0.86431 l 0.0459,-0.21519 0.0212,-0.10936 c -0.007,0.0282 0.0247,-0.0988 -0.0176,0.0564 l 0.004,-0.0247 0.007,-0.0494 c 0.0176,-0.13053 0.0353,-0.25753 0.0494,-0.38806 0.0353,-0.26105 0.0776,-0.51858 0.10936,-0.77963 0.0882,-1.05128 0.16581,-2.12373 0.11642,-3.21381 0.004,-0.27164 -0.0212,-0.54681 -0.0388,-0.81844 -0.0247,-0.27517 -0.0317,-0.55034 -0.0635,-0.82198 -0.067,-0.55033 -0.11994,-1.10419 -0.22577,-1.651 -0.17639,-1.10066 -0.44803,-2.20133 -0.79375,-3.2773 -0.32103,-1.08303 -0.772589,-2.13431 -1.255895,-3.16089 l -0.377472,-0.762 -0.419806,-0.73731 c -0.07055,-0.119942 -0.137583,-0.261053 -0.208138,-0.359831 l -0.208139,-0.324555 -0.208139,-0.328084 -0.102306,-0.162277 -0.144639,-0.204612 -0.578555,-0.814916 -0.03881,-0.04939 -0.01764,-0.02822 c 0.02117,0.03175 -0.07408,-0.102306 0.04586,0.0635 l -0.06703,-0.08819 -0.134056,-0.169333 -0.268111,-0.338667 -0.567972,-0.687917 -0.599723,-0.691444 c -0.8255,-0.924278 -1.7145,-1.87325 -2.624666,-2.878667 -0.906639,-1.005417 -1.827389,-2.074333 -2.691695,-3.245556 l -0.3175,-0.440972 -0.310445,-0.462139 -0.303388,-0.458611 -0.292806,-0.479778 c -0.09525,-0.162278 -0.1905,-0.310444 -0.289278,-0.486833 L 88.339053,86.90992 88.197942,86.638281 c -0.04586,-0.08819 -0.09878,-0.1905 -0.127,-0.254 l -0.1905,-0.430389 c -0.07761,-0.176389 -0.15875,-0.356305 -0.236361,-0.532694 -0.06703,-0.179917 -0.134055,-0.356306 -0.204611,-0.532695 -0.141111,-0.34925 -0.239889,-0.712611 -0.352778,-1.068917 -0.112889,-0.356305 -0.194028,-0.719666 -0.282222,-1.0795 -0.07761,-0.359833 -0.141111,-0.719666 -0.204611,-1.075972 -0.218722,-1.432278 -0.239889,-2.843389 -0.116417,-4.173361 0.243417,-2.667 1.054806,-5.005917 2.021417,-6.97089 0.973667,-1.972027 2.137833,-3.577166 3.263195,-4.882444 1.128889,-1.305278 2.240139,-2.300112 3.192639,-3.051528 0.47625,-0.377473 0.910166,-0.6985 1.305278,-0.956028 0.381,-0.264584 0.73025,-0.469195 1.001888,-0.638528 0.271639,-0.165806 0.493889,-0.275167 0.638528,-0.356306 0.144639,-0.07761 0.218723,-0.119944 0.218723,-0.119944"
       style="fill:#e7e393;fill-opacity:1;fill-rule:nonzero;stroke:none;stroke-width:0.0352778"
       id="path24" />
    <path
       d="m 77.271874,70.872755 c 0,0 -0.204611,0.275167 -0.585611,0.786695 -0.366889,0.511528 -0.903112,1.266472 -1.516945,2.243667 -0.606778,0.980722 -1.30175,2.183694 -1.950861,3.601861 -0.328083,0.709083 -0.645583,1.467555 -0.934861,2.275417 -0.28575,0.804333 -0.560917,1.654528 -0.765528,2.547055 -0.433917,1.774473 -0.659695,3.711223 -0.515056,5.633862 0.07408,0.963083 0.243417,1.915583 0.518584,2.839861 0.07761,0.229306 0.148166,0.458611 0.229305,0.684389 0.09525,0.22225 0.169334,0.451556 0.271639,0.670278 0.105833,0.218722 0.1905,0.4445 0.313972,0.656167 l 0.169334,0.324555 0.01764,0.03881 c -0.01411,-0.03175 0.04939,0.102305 -0.03175,-0.06703 l 0.01764,0.02822 0.05644,0.09878 0.116417,0.204611 0.236361,0.405695 c 0.04233,0.08114 0.07056,0.112888 0.102305,0.15875 l 0.09878,0.137583 0.186972,0.275167 0.229306,0.310444 0.232833,0.3175 0.254,0.3175 0.254,0.3175 0.275167,0.3175 c 0.733778,0.850195 1.573389,1.707445 2.469445,2.607028 0.899583,0.899583 1.866194,1.83797 2.832805,2.87514 l 0.726723,0.79727 c 0.243416,0.2787 0.483305,0.55387 0.719666,0.84314 l 0.356306,0.44098 0.176389,0.22225 0.08819,0.10936 0.137584,0.18697 0.585611,0.80786 0.148166,0.20461 0.165806,0.25753 0.328083,0.51858 0.328084,0.52211 c 0.112889,0.17639 0.1905,0.33514 0.289277,0.50448 0.183445,0.33514 0.370417,0.67027 0.550334,1.00894 l 0.486833,1.03364 c 0.624417,1.38642 1.146528,2.81164 1.509889,4.26156 l 0.144639,0.54327 0.116417,0.54681 c 0.07408,0.36336 0.155222,0.72319 0.218722,1.09008 0.105833,0.73025 0.229306,1.45345 0.278694,2.1837 0.08114,0.72672 0.08819,1.45344 0.109362,2.17311 0.0071,0.3563 -0.01411,0.71614 -0.02117,1.07244 -0.01411,0.35631 -0.02117,0.71261 -0.05997,1.06539 -0.03175,0.34925 -0.06703,0.70203 -0.09878,1.05128 -0.04233,0.34572 -0.102306,0.69144 -0.151695,1.03364 -0.08819,0.68792 -0.264583,1.35819 -0.405694,2.02142 -0.08819,0.32808 -0.183445,0.65263 -0.271639,0.97366 -0.04939,0.16228 -0.09525,0.32103 -0.141111,0.48331 l -0.05644,0.19403 -0.03881,0.10583 -0.07761,0.20814 c -0.102306,0.27869 -0.201084,0.55386 -0.299861,0.8255 -0.04586,0.127 -0.119945,0.29986 -0.183445,0.45508 -0.06703,0.15522 -0.134055,0.31045 -0.197555,0.46567 -0.06703,0.15522 -0.134056,0.31044 -0.201084,0.46214 l -0.09878,0.2293 -0.105834,0.21167 c -0.141111,0.28222 -0.282222,0.55739 -0.423333,0.83608 -0.134056,0.27517 -0.292806,0.53975 -0.448028,0.80081 -0.151694,0.26105 -0.306917,0.51858 -0.458611,0.77258 -0.335139,0.49389 -0.652639,0.98072 -0.991306,1.43933 -0.172861,0.22578 -0.342194,0.45156 -0.511528,0.67381 -0.08467,0.10936 -0.169333,0.21872 -0.254,0.32808 -0.09172,0.10231 -0.179916,0.20814 -0.268111,0.31045 -0.363361,0.40569 -0.702028,0.81491 -1.075972,1.17828 -0.363361,0.36688 -0.705556,0.7373 -1.083028,1.0548 -0.370417,0.32456 -0.719667,0.64559 -1.086555,0.92781 -0.366889,0.28222 -0.702028,0.57503 -1.068917,0.81139 -1.407584,1.01247 -2.741084,1.70391 -3.855862,2.19427 -0.278694,0.11995 -0.543277,0.23284 -0.790222,0.33867 -0.250472,0.0988 -0.497417,0.17286 -0.716139,0.25047 -0.22225,0.0741 -0.426861,0.14464 -0.617361,0.20814 -0.186972,0.0635 -0.363361,0.0988 -0.518583,0.14464 -0.313973,0.0847 -0.553861,0.13758 -0.712611,0.17639 -0.15875,0.0388 -0.243417,0.06 -0.243417,0.06 0,0 0.268111,-0.21166 0.769055,-0.6103 0.250473,-0.18345 0.546806,-0.44098 0.892528,-0.73731 0.169334,-0.14817 0.356306,-0.29986 0.546806,-0.47272 0.1905,-0.17639 0.388055,-0.36336 0.599722,-0.56092 0.105834,-0.0988 0.211667,-0.19755 0.321028,-0.29986 0.105833,-0.10936 0.215194,-0.21872 0.324556,-0.33514 0.218722,-0.22578 0.455083,-0.45155 0.684388,-0.70555 0.225778,-0.25753 0.462139,-0.52564 0.705556,-0.79375 0.239889,-0.27517 0.472722,-0.57856 0.716139,-0.87489 0.959556,-1.22061 1.929695,-2.65995 2.783417,-4.30036 0.109361,-0.20109 0.211667,-0.41275 0.313972,-0.62442 0.09878,-0.21167 0.201083,-0.42333 0.306917,-0.63853 0.197555,-0.43392 0.370416,-0.88547 0.560916,-1.33703 0.07761,-0.23283 0.15875,-0.46566 0.246945,-0.6985 0.08467,-0.2293 0.172861,-0.46214 0.236361,-0.70555 0.07408,-0.23989 0.148167,-0.47978 0.218722,-0.71967 l 0.05644,-0.18344 0.04233,-0.17286 c 0.02822,-0.11642 0.05645,-0.23284 0.08467,-0.34573 0.02469,-0.11641 0.05644,-0.23283 0.08467,-0.34925 0.02469,-0.11994 0.05644,-0.21519 0.08467,-0.37041 0.05997,-0.28575 0.116417,-0.5715 0.176389,-0.86078 l 0.04586,-0.21872 0.02117,-0.10936 c -0.0071,0.0282 0.02469,-0.0988 -0.01764,0.0564 l 0.0035,-0.0247 0.0071,-0.0494 c 0.01764,-0.127 0.03175,-0.25753 0.04939,-0.38806 0.03528,-0.25753 0.07761,-0.51858 0.109361,-0.77964 0.08819,-1.05128 0.165806,-2.12019 0.116417,-3.2138 0.0035,-0.27164 -0.02117,-0.54328 -0.03881,-0.81845 -0.02469,-0.27516 -0.03175,-0.5468 -0.0635,-0.82197 -0.06703,-0.55033 -0.119944,-1.10067 -0.225777,-1.651 -0.176389,-1.10067 -0.448028,-2.19781 -0.79375,-3.27731 -0.321028,-1.08302 -0.772584,-2.13077 -1.255889,-3.15736 l -0.377473,-0.762 -0.419805,-0.74083 c -0.07056,-0.11995 -0.137584,-0.26106 -0.208139,-0.35983 l -0.208139,-0.32456 -0.208139,-0.32808 -0.102306,-0.16228 -0.144638,-0.20461 -0.578556,-0.81492 -0.03881,-0.0494 -0.01764,-0.0247 c 0.02117,0.0282 -0.07408,-0.10231 0.04586,0.06 l -0.06703,-0.0847 -0.134056,-0.16933 -0.268111,-0.34219 -0.567972,-0.68439 -0.599722,-0.69145 c -0.8255,-0.92428 -1.718028,-1.87678 -2.624667,-2.88219 -0.906639,-1.00542 -1.827389,-2.07434 -2.691695,-3.24556 l -0.3175,-0.440969 -0.310444,-0.458611 -0.303389,-0.462139 -0.292806,-0.479778 c -0.09525,-0.162277 -0.1905,-0.310444 -0.289278,-0.486833 l -0.289276,-0.54323 -0.141111,-0.271639 c -0.04586,-0.08819 -0.09878,-0.1905 -0.127001,-0.254 l -0.1905,-0.430389 c -0.07761,-0.176389 -0.15875,-0.352777 -0.236361,-0.532694 -0.06703,-0.176389 -0.134055,-0.356306 -0.204611,-0.532695 -0.141111,-0.34925 -0.239889,-0.712611 -0.352778,-1.068916 -0.112888,-0.356306 -0.194027,-0.719667 -0.282222,-1.075973 -0.07761,-0.359833 -0.141111,-0.723194 -0.204611,-1.0795 -0.218722,-1.432278 -0.239889,-2.839861 -0.116417,-4.169833 0.243417,-2.670528 1.054806,-5.009445 2.021417,-6.974417 0.973667,-1.972028 2.137834,-3.577167 3.263195,-4.882445 1.128889,-1.30175 2.240139,-2.300111 3.192639,-3.051528 0.47625,-0.377472 0.910167,-0.694972 1.305278,-0.9525 0.381,-0.268111 0.73025,-0.472722 1.001889,-0.638528 0.271639,-0.169333 0.493889,-0.278694 0.638528,-0.359833 0.144638,-0.07761 0.218722,-0.119945 0.218722,-0.119945"
       style="fill:#e7e393;fill-opacity:1;fill-rule:nonzero;stroke:none;stroke-width:0.0352778"
       id="path26" />
    <path
       d="m 91.873347,204.32507 c -19.00414,0 -34.409947,-6.71336 -34.409947,-14.99306 0,-0.38805 0.03175,-0.76905 0.09878,-1.15005 -4.903611,2.59291 -7.849306,5.91255 -7.849306,9.53558 0,8.2797 15.409334,14.99306 34.413474,14.99306 18.118662,0 32.967082,-6.10306 34.314692,-13.84653 -6.31119,3.33375 -15.86794,5.461 -26.567691,5.461"
       style="fill:#e7e393;fill-opacity:1;fill-rule:nonzero;stroke:none;stroke-width:0.0352778"
       id="path28" />
  </g>
</svg>
